<svg xmlns="http://www.w3.org/2000/svg" viewBox="976.5 3761.5 186 186"><defs><style>.cls-1,.cls-4{fill:none}.cls-2{clip-path:url(#clip-path)}.cls-3{fill:#fff}.cls-4{stroke:#898989;stroke-width:4px}.cls-5{fill:#868786}</style><clipPath id="clip-path"><path id="Path_666" data-name="Path 666" class="cls-1" d="M0 57h186v-186H0z" transform="translate(0 129)"/></clipPath></defs><g id="Group_984" data-name="Group 984" transform="translate(976.5 3761.5)"><g id="Group_946" data-name="Group 946" class="cls-2" transform="translate(2.884 2.884)"><g id="Group_944" data-name="Group 944"><path id="Path_664" data-name="Path 664" class="cls-3" d="M27.616 55.233a90.116 90.116 0 0 0 90.116-90.116A90.116 90.116 0 0 0 27.616-125 90.116 90.116 0 0 0-62.5-34.884a90.116 90.116 0 0 0 90.116 90.117" transform="translate(62.5 125)"/></g><g id="Group_945" data-name="Group 945"><path id="Path_665" data-name="Path 665" class="cls-4" d="M27.616 55.233a90.116 90.116 0 0 0 90.116-90.116A90.116 90.116 0 0 0 27.616-125 90.116 90.116 0 0 0-62.5-34.884a90.116 90.116 0 0 0 90.116 90.117z" transform="translate(62.5 125)"/></g></g><path id="Path_667" data-name="Path 667" class="cls-5" d="M37.186-65.957h5.2v-17.608h-5.2z" transform="translate(16.431 149.076)"/><g id="Group_949" data-name="Group 949" class="cls-2"><g id="Group_947" data-name="Group 947" transform="translate(53.616 83.738)"><path id="Path_668" data-name="Path 668" class="cls-5" d="M0 .559a.8.8 0 0 0 .8.8h3.6a.805.805 0 0 0 .8-.8v-1.824H0z" transform="translate(0 1.265)"/></g><g id="Group_948" data-name="Group 948" transform="translate(53.617 61.159)"><path id="Path_669" data-name="Path 669" class="cls-5" d="M1.348 0h-3.593a.8.8 0 0 0-.8.8v1.52h5.2V.8a.8.8 0 0 0-.8-.8" transform="translate(3.05)"/></g></g><path id="Path_671" data-name="Path 671" class="cls-5" d="M38.974-41.237h5.25v-8.856h-5.25z" transform="translate(17.221 163.866)"/><g id="Group_954" data-name="Group 954" class="cls-2"><g id="Group_950" data-name="Group 950" transform="translate(56.194 100.042)"><path id="Path_672" data-name="Path 672" class="cls-5" d="M1.609.235a.767.767 0 0 0-.767-.767h-3.714a.768.768 0 0 0-.769.767v12.328h5.25z" transform="translate(3.641 .532)"/></g><g id="Group_951" data-name="Group 951" transform="translate(56.195 123.266)"><path id="Path_673" data-name="Path 673" class="cls-5" d="M0 .576a.824.824 0 0 0 .823.824h3.6A.824.824 0 0 0 5.25.576V-1.3H0z" transform="translate(0 1.304)"/></g><g id="Group_952" data-name="Group 952" transform="translate(101.013 66.075)"><path id="Path_674" data-name="Path 674" class="cls-5" d="M1.9.262a.855.855 0 0 0-.855-.855h-4.492A.855.855 0 0 0-4.3.262v8.981h6.2z" transform="translate(4.302 .593)"/></g><g id="Group_953" data-name="Group 953" transform="translate(101.014 83.737)"><path id="Path_675" data-name="Path 675" class="cls-5" d="M0 .544a.855.855 0 0 0 .855.856h4.493A.856.856 0 0 0 6.2.544v-1.775H0z" transform="translate(0 1.231)"/></g></g><path id="Path_677" data-name="Path 677" class="cls-5" d="M70.058-69.334h6.2v-6.589h-6.2z" transform="translate(30.956 152.453)"/><g id="Group_957" data-name="Group 957" class="cls-2"><g id="Group_955" data-name="Group 955" transform="translate(127.444 105.678)"><path id="Path_678" data-name="Path 678" class="cls-5" d="M1.9.273a.889.889 0 0 0-.89-.89h-4.422a.889.889 0 0 0-.89.89V1.7H1.9z" transform="translate(4.302 .617)"/></g><g id="Group_956" data-name="Group 956" transform="translate(127.445 123.341)"><path id="Path_679" data-name="Path 679" class="cls-5" d="M0 .546a.847.847 0 0 0 .846.846h4.51A.847.847 0 0 0 6.2.546v-1.782H0z" transform="translate(0 1.236)"/></g></g><path id="Path_681" data-name="Path 681" class="cls-5" d="M88.389-39.564h6.2V-53.67h-6.2z" transform="translate(39.056 162.285)"/><g id="Group_960" data-name="Group 960" class="cls-2"><g id="Group_958" data-name="Group 958" transform="translate(83.013 105.099)"><path id="Path_682" data-name="Path 682" class="cls-5" d="M1.918.257a.839.839 0 0 0-.839-.839H-3.5a.84.84 0 0 0-.84.839v4.62h6.258z" transform="translate(4.34 .582)"/></g><g id="Group_959" data-name="Group 959" transform="translate(83.014 123.266)"><path id="Path_683" data-name="Path 683" class="cls-5" d="M0 .568a.85.85 0 0 0 .851.851h4.556a.85.85 0 0 0 .851-.851v-1.853H0z" transform="translate(0 1.285)"/></g></g><path id="Path_685" data-name="Path 685" class="cls-5" d="M57.574-40.447h6.258v-11.435h-6.258z" transform="translate(25.44 163.075)"/><g id="Group_963" data-name="Group 963" class="cls-2"><g id="Group_961" data-name="Group 961" transform="translate(66.622 105.099)"><path id="Path_686" data-name="Path 686" class="cls-5" d="M1.918.263A.857.857 0 0 0 1.06-.6h-4.542a.858.858 0 0 0-.858.863v1.528h6.258z" transform="translate(4.34 .595)"/></g><g id="Group_962" data-name="Group 962" transform="translate(66.623 123.265)"><path id="Path_687" data-name="Path 687" class="cls-5" d="M0 .571a.842.842 0 0 0 .842.842h4.574a.843.843 0 0 0 .842-.842v-1.863H0z" transform="translate(0 1.292)"/></g></g><path id="Path_689" data-name="Path 689" class="cls-5" d="M46.206-39.5h6.258v-14.513h-6.258z" transform="translate(20.417 162.134)"/><g id="Group_975" data-name="Group 975" class="cls-2"><g id="Group_964" data-name="Group 964" transform="translate(61.899 66.417)"><path id="Path_690" data-name="Path 690" class="cls-5" d="M1.348 0h-3.593a.8.8 0 0 0-.8.8v18.34a.8.8 0 0 0 .8.8h3.593a.8.8 0 0 0 .8-.8V.8a.8.8 0 0 0-.8-.8m-1.8 17.591a1.25 1.25 0 0 1-1.262-1.237 1.25 1.25 0 0 1 1.265-1.238 1.25 1.25 0 0 1 1.262 1.238 1.25 1.25 0 0 1-1.262 1.237" transform="translate(3.05)"/></g><g id="Group_965" data-name="Group 965" transform="translate(99.908 105.45)"><path id="Path_691" data-name="Path 691" class="cls-5" d="M1.36 0h-3.626a.813.813 0 0 0-.812.812v18.9a.8.8 0 0 0 .8.8h3.647a.8.8 0 0 0 .8-.8V.812A.812.812 0 0 0 1.36 0M-.452 4.439a1.273 1.273 0 0 1-1.274-1.273A1.272 1.272 0 0 1-.452 1.895 1.272 1.272 0 0 1 .819 3.166 1.272 1.272 0 0 1-.452 4.439" transform="translate(3.078)"/></g><g id="Group_966" data-name="Group 966" transform="translate(70.408 60.232)"><path id="Path_692" data-name="Path 692" class="cls-5" d="M1.577 8.009h-4.341a.805.805 0 0 1-.806-.8v-24.53a.805.805 0 0 1 .806-.8h4.341a.8.8 0 0 1 .8.8V7.2a.8.8 0 0 1-.8.8" transform="translate(3.57 18.126)"/></g><g id="Group_967" data-name="Group 967" transform="translate(78.656 62.552)"><path id="Path_693" data-name="Path 693" class="cls-5" d="M1.094 7.3h-2.765a.8.8 0 0 1-.8-.8v-22.212a.8.8 0 0 1 .8-.8h2.765a.8.8 0 0 1 .8.8V6.494a.8.8 0 0 1-.8.8" transform="translate(2.476 16.517)"/></g><g id="Group_968" data-name="Group 968" transform="translate(86.457 59.613)"><path id="Path_694" data-name="Path 694" class="cls-5" d="M1.433 8.2h-3.869a.805.805 0 0 1-.806-.8v-25.15a.805.805 0 0 1 .806-.8h3.869a.8.8 0 0 1 .8.8V7.394a.8.8 0 0 1-.8.8" transform="translate(3.242 18.555)"/></g><g id="Group_969" data-name="Group 969" transform="translate(120.51 58.673)"><path id="Path_695" data-name="Path 695" class="cls-5" d="M1.32 8.487h-3.459a.849.849 0 0 1-.849-.849v-26.027a.818.818 0 0 1 .816-.818h3.524a.818.818 0 0 1 .818.818V7.638a.849.849 0 0 1-.849.849" transform="translate(2.988 19.207)"/></g><g id="Group_970" data-name="Group 970" transform="translate(128.435 68.548)"><path id="Path_696" data-name="Path 696" class="cls-5" d="M1.076 5.461H-1.63a.805.805 0 0 1-.806-.806v-16.138a.876.876 0 0 1 .875-.875h2.568a.876.876 0 0 1 .875.875V4.655a.805.805 0 0 1-.806.806" transform="translate(2.436 12.358)"/></g><g id="Group_971" data-name="Group 971" transform="translate(112.478 66.553)"><path id="Path_697" data-name="Path 697" class="cls-5" d="M1.063 6.072h-2.62a.85.85 0 0 1-.849-.849v-18.147a.818.818 0 0 1 .818-.818h2.683a.818.818 0 0 1 .818.818V5.223a.85.85 0 0 1-.849.849" transform="translate(2.406 13.742)"/></g><g id="Group_972" data-name="Group 972" transform="translate(118.633 100.94)"><path id="Path_698" data-name="Path 698" class="cls-5" d="M1.383 7.67h-3.674a.837.837 0 0 1-.838-.838v-23.324a.866.866 0 0 1 .867-.867h3.617a.867.867 0 0 1 .867.867V6.833a.839.839 0 0 1-.839.838" transform="translate(3.129 17.359)"/></g><g id="Group_973" data-name="Group 973" transform="translate(110.494 104.343)"><path id="Path_699" data-name="Path 699" class="cls-5" d="M1.068 6.627h-2.63a.857.857 0 0 1-.856-.856v-20.013A.758.758 0 0 1-1.661-15h2.829a.757.757 0 0 1 .757.757V5.771a.857.857 0 0 1-.856.856" transform="translate(2.418 14.999)"/></g><g id="Group_974" data-name="Group 974" transform="translate(76.008 103.064)"><path id="Path_700" data-name="Path 700" class="cls-5" d="M.653 7.019H-.626a.852.852 0 0 1-.852-.852v-21.286a.768.768 0 0 1 .769-.767H.737a.768.768 0 0 1 .769.767V6.167a.852.852 0 0 1-.852.852" transform="translate(1.478 15.886)"/></g></g><path id="Path_702" data-name="Path 702" class="cls-5" d="M65.4-69.988h2.956v-1.338H65.4z" transform="translate(28.896 154.484)"/><g id="Group_978" data-name="Group 978" class="cls-2"><g id="Group_976" data-name="Group 976" transform="translate(94.293 85.27)"><path id="Path_703" data-name="Path 703" class="cls-5" d="M0 .074a.855.855 0 0 0 .855.855H2.1a.855.855 0 0 0 .856-.855v-.242H0z" transform="translate(0 .168)"/></g><g id="Group_977" data-name="Group 977" transform="translate(94.294 64.097)"><path id="Path_704" data-name="Path 704" class="cls-5" d="M.906.262a.855.855 0 0 0-.855-.855H-1.2a.855.855 0 0 0-.85.855v1.256H.906z" transform="translate(2.05 .593)"/></g></g><path id="Path_706" data-name="Path 706" class="cls-5" d="M65.4-67.142h2.956v-15.4H65.4z" transform="translate(28.896 149.527)"/><g id="Group_980" data-name="Group 980" class="cls-2"><g id="Group_979" data-name="Group 979" transform="translate(44.644 72.639)"><path id="Path_707" data-name="Path 707" class="cls-5" d="M29.714.7a1.671 1.671 0 0 0-1.671-1.676H26A1.671 1.671 0 0 0 24.327.7v13.086H-61.86V.2a1.777 1.777 0 0 0-1.778-1.776h-1.833A1.777 1.777 0 0 0-67.247.2v54.348a1.736 1.736 0 0 0 1.736 1.736h93.575a1.65 1.65 0 0 0 1.649-1.651V.7zM-61.86 17.378h86.187v35.314H-61.86z" transform="translate(67.247 1.574)"/></g></g><path id="Path_709" data-name="Path 709" class="cls-5" d="M64.71-43.192h2.983v-1.351H64.71z" transform="translate(28.593 166.318)"/><g id="Group_983" data-name="Group 983" class="cls-2"><g id="Group_981" data-name="Group 981" transform="translate(93.303 123.921)"><path id="Path_710" data-name="Path 710" class="cls-5" d="M0 .377a.818.818 0 0 0 .819.823h1.345a.818.818 0 0 0 .818-.823v-1.23H0z" transform="translate(0 .853)"/></g><g id="Group_982" data-name="Group 982" transform="translate(93.304 103.064)"><path id="Path_711" data-name="Path 711" class="cls-5" d="M.914.239a.782.782 0 0 0-.782-.781h-1.419a.781.781 0 0 0-.781.781v1.389H.914z" transform="translate(2.068 .542)"/></g></g><path id="Path_713" data-name="Path 713" class="cls-5" d="M67.693-55.463h-2.982v14.949h2.982z" transform="translate(28.593 161.493)"/></g></svg>