<svg xmlns="http://www.w3.org/2000/svg" width="165.597" height="139.856" viewBox="0 0 165.597 139.856"><g fill="#FFF"><path d="M3.693 137.561c.58.264 1.61.686 3.089.686 2.453 0 4.565-1.214 4.565-4.17v-1.372c0-.502.079-.952.079-.952h-.053c-.792 1.505-2.139 2.483-4.224 2.483-3.563 0-5.911-2.798-5.911-6.89 0-3.905 2.163-6.625 5.859-6.625 3.43 0 4.328 2.43 4.328 2.43h.053s-.053-.188-.053-.449v-1.082c0-.343.211-.58.633-.58h.422c.424 0 .661.237.661.659v12.3c0 4.222-3.141 5.858-6.308 5.858-1.373 0-2.719-.29-3.827-.791-.397-.188-.502-.449-.317-.846l.158-.37c.187-.344.424-.448.846-.289m7.681-10.082c0-3.935-1.9-5.146-4.117-5.146-2.693 0-4.171 1.9-4.171 4.96 0 3.327 1.716 5.332 4.329 5.332 2.111-.001 3.959-1.293 3.959-5.146M23.014 120.722c3.537 0 5.543 2.56 5.543 6.334 0 .37-.291.66-.687.66h-9.554c.079 3.379 2.401 5.304 5.146 5.304 1.663 0 2.877-.738 3.483-1.213.369-.239.66-.185.871.158l.211.316c.186.317.132.634-.185.87-.712.529-2.295 1.479-4.435 1.479-3.959 0-6.94-2.852-6.94-6.943.002-4.352 2.958-6.965 6.547-6.965m3.721 5.648c-.105-2.799-1.795-4.171-3.773-4.171-2.219 0-4.145 1.479-4.566 4.171h8.339zM31.831 121.698c0-.423.238-.659.66-.659h.475c.396 0 .633.236.633.659v1.529c0 .529-.104.95-.104.95h.052c.502-1.213 2.243-3.458 5.358-3.458 3.3 0 4.461 1.874 4.461 5.148v7.786c0 .422-.238.658-.66.658h-.501c-.423 0-.634-.236-.634-.658v-7.311c0-2.085-.344-3.933-2.904-3.933-2.823 0-5.041 2.321-5.041 5.409v5.834c0 .422-.211.658-.633.658h-.501c-.422 0-.66-.236-.66-.658v-11.954zM53.051 120.722c3.536 0 5.543 2.56 5.543 6.334 0 .37-.291.66-.686.66h-9.554c.078 3.379 2.4 5.304 5.146 5.304 1.663 0 2.877-.738 3.484-1.213.369-.239.66-.185.871.158l.21.316c.186.317.133.634-.185.87-.712.529-2.295 1.479-4.434 1.479-3.959 0-6.941-2.852-6.941-6.943.001-4.352 2.957-6.965 6.546-6.965m3.722 5.648c-.106-2.799-1.795-4.171-3.775-4.171-2.217 0-4.143 1.479-4.565 4.171h8.34zM61.868 121.698c0-.423.237-.659.66-.659h.475c.396 0 .634.236.634.659v1.795c0 .581-.105 1.056-.105 1.056h.052c.635-1.927 2.165-3.589 4.276-3.589.475 0 .686.211.686.633v.474c0 .424-.289.659-.738.659-2.797 0-4.145 3.196-4.145 5.966v4.963c0 .422-.211.658-.633.658h-.501c-.423 0-.66-.236-.66-.658v-11.957zM77.758 126.186h.765v-.423c0-2.562-1.398-3.432-3.272-3.432-1.479 0-2.613.555-3.22.925-.369.183-.66.132-.897-.212l-.158-.266c-.211-.341-.159-.685.185-.896.686-.422 2.164-1.161 4.223-1.161 3.167 0 4.935 1.767 4.935 5.093v7.838c0 .422-.211.661-.632.661h-.423c-.423 0-.66-.21-.66-.661v-1.054c0-.609.079-1.003.079-1.003h-.053c.027 0-1.188 3.035-4.486 3.035-2.244 0-4.486-1.319-4.486-3.88-.003-4.327 5.539-4.564 8.1-4.564m-3.3 6.941c2.561 0 4.064-2.642 4.064-4.963v-.635h-.738c-2.085 0-6.282.079-6.282 3.063 0 1.24.977 2.535 2.956 2.535M84.699 122.648h-1.107c-.422 0-.635-.212-.635-.635v-.212c0-.422.213-.658.635-.658h1.134v-3.113c0-.423.238-.66.66-.66h.476c.422 0 .633.237.633.66v3.113h2.692c.422 0 .658.236.658.658v.212c0 .423-.236.635-.658.635h-2.692v6.649c0 3.063 1.873 3.433 2.903 3.485.527.053.713.211.713.66v.343c0 .423-.211.633-.74.633-2.902 0-4.671-1.768-4.671-4.882v-6.888zM92.697 117.37v-.95c0-.422.211-.66.633-.66h.66c.423 0 .634.238.634.66v.95c0 .422-.211.633-.634.633h-.66c-.422 0-.633-.211-.633-.633m.053 4.328c0-.423.237-.659.659-.659h.502c.422 0 .633.236.633.659v11.956c0 .422-.211.658-.633.658h-.502c-.422 0-.659-.236-.659-.658v-11.956zM104.839 120.721c3.879 0 7.02 2.955 7.02 6.89 0 4.012-3.141 7.019-6.994 7.019-3.88 0-7.021-3.007-7.021-7.019-.001-3.935 3.14-6.89 6.995-6.89m.025 12.3c2.825 0 5.146-2.323 5.146-5.411 0-3.009-2.321-5.278-5.146-5.278-2.852 0-5.173 2.27-5.173 5.278 0 3.088 2.322 5.411 5.173 5.411M115.133 121.698c0-.423.237-.659.66-.659h.476c.395 0 .633.236.633.659v1.529c0 .529-.105.95-.105.95h.052c.501-1.213 2.243-3.458 5.358-3.458 3.3 0 4.461 1.874 4.461 5.148v7.786c0 .422-.238.658-.66.658h-.501c-.423 0-.635-.236-.635-.658v-7.311c0-2.085-.343-3.933-2.903-3.933-2.824 0-5.041 2.321-5.041 5.409v5.834c0 .422-.211.658-.633.658h-.501c-.423 0-.66-.236-.66-.658v-11.954zM139.388 115.258c5.676 0 9.687 4.195 9.687 9.555 0 5.517-4.011 9.816-9.687 9.816-5.674 0-9.686-4.3-9.686-9.816 0-5.36 4.012-9.555 9.686-9.555m0 16.259c3.59 0 6.177-2.903 6.177-6.704 0-3.644-2.587-6.441-6.177-6.441-3.588 0-6.176 2.798-6.176 6.441 0 3.8 2.588 6.704 6.176 6.704M151.689 121.962c0-.713.37-1.107 1.082-1.107h1.028c.714 0 1.082.395 1.082 1.107v.816c0 .29-.051.609-.051.609h.051c.582-1.135 2.06-2.852 4.777-2.852 2.983 0 4.698 1.558 4.698 5.119v7.55c0 .737-.369 1.109-1.108 1.109h-1.135c-.713 0-1.107-.372-1.107-1.109v-6.861c0-1.638-.424-2.745-2.112-2.745-2.375 0-3.88 1.978-3.88 4.407v5.199c0 .737-.369 1.109-1.082 1.109h-1.161c-.712 0-1.082-.372-1.082-1.109v-11.242zM49.113 44.066c.082-.771.308-1.586-.268-2.224a1.46 1.46 0 0 0-1.821-.292c-1.288.747-.979 3.481-1.145 4.788a49.43 49.43 0 0 1-2.943 11.651 49.136 49.136 0 0 1-2.442 5.313c-.387.729-1.057 1.533-.839 2.407.161.645.771 1.13 1.438 1.13 1.086 0 1.502-1.12 1.933-1.922.492-.919.961-1.851 1.4-2.797a51.887 51.887 0 0 0 2.398-6.199c1.225-3.876 1.863-7.822 2.289-11.855"/><path d="M129.078 38.781c-.278-1.514-.592-3.063-1.06-4.532-.266-.836-.67-1.636-.965-2.488-1.935-5.594-4.932-10.804-8.754-15.314-.73-.863-1.814-2.657-3.183-2.092-1.06.434-1.125 1.655-.513 2.467.845 1.12 1.885 2.109 2.746 3.226.218.284.705.745.761 1.075.03.19-.283.683-.315.945-.699-.047-1.789-.076-2.127.693-.373.849.747.975 1.282 1.444-1.694.791-1.44 2.733-.174 3.791 1.058.885 3.481.87 4.364-.26.832.756.789 1.718 1.031 2.725-.564.123-1.091.45-1.384.957-.128.224-.146.663-.362.809-.308.201-1.326-.169-1.711-.219-.615-.077-1.151-.045-1.742.161-2.094-3.515-4.066-7.086-6.873-10.176-6.397-7.044-15.434-11.457-24.947-12.014a37.917 37.917 0 0 0-1.784-.063c-.47-.005-1.219.165-1.65.022-.736-.248-1.399-1.582-2.036-2.062-.862-.646-1.728-.88-2.769-1.081-.893-.173-1.741-.485-2.632-.149-1.485.559-2.407 1.955-3.773 2.423-1.779-.02-3.855-.715-4.16-2.669 7.438-3.055 15.427-4.065 23.455-2.833-.683 1.317-.433 2.698.635 3.734 1.281 1.244 2.73 1.213 4.381 1 1.432-.183 2.833-.092 4.266-.051.979.029 1.821-.109 2.187-1.148a46.055 46.055 0 0 1 3.399 1.775c.582.343 1.156.695 1.723 1.061.521.337 1.134.919 1.734 1.09 1.188.337 2.286-.834 1.823-2.013-.429-1.093-2.272-1.856-3.222-2.432A46.011 46.011 0 0 0 90.25.551C70.996-2.511 50.873 7.378 41.864 24.77a50.917 50.917 0 0 0-4.738 13.555 48.737 48.737 0 0 0-.602 3.915c-.104.933-.375 2.102.589 2.692 2.505 1.53 2.466-3.264 2.656-4.456 1.468-9.203 5.836-17.901 12.328-24.566-.08 2.785-1.338 5.006-2.184 7.58-1.057 3.217-1.776 7.362-.745 10.675.405 1.305 1.795 1.804 2.455 2.928.523.892.218 1.924.188 2.901-.066 2.15-.219 4.637.386 6.725.369 1.278 1.087 2.492 1.764 3.629.238.398.839.996.932 1.444.089.433-.197 1.144-.296 1.59a59.225 59.225 0 0 1-3.423 10.639 58.968 58.968 0 0 1-4.942 9.124c-.672 1.016-2.188 2.978-.248 3.705 1.633.61 2.653-1.887 3.32-2.938a61.882 61.882 0 0 0 4.906-9.402 62.588 62.588 0 0 0 1.979-5.49c.517-1.675.775-3.496 1.385-5.129 2.004 1.454 4.533.939 6.731 1.853-.791 4.169-2.168 8.206-3.843 12.1a69.09 69.09 0 0 1-6.096 11.176c-.78 1.163-3.371 3.501-1.893 4.93 1.641 1.585 3.219-1.557 3.956-2.631 4.671-6.807 8.08-14.366 10.24-22.323.968 1.825 2.646 1.537 4.443 1.67-.001 1.506-1.511 2.272-1.989 3.609-.384 1.077-.462 2.221-.962 3.265-.389.811-.967 1.537-1.181 2.423-.21.874.007 1.714.351 2.525.16.378.35.741.558 1.094.165.28.663.773.729 1.091.171.813-1.413 2.833-1.845 3.582-1.764 3.059-3.566 6.073-5.637 8.937-.414.569-.854 1.094-.675 1.853a1.499 1.499 0 0 0 1.438 1.164c.946.004 1.414-.906 1.894-1.574a80.163 80.163 0 0 0 1.774-2.581c1.875-2.846 3.495-5.827 5.159-8.798.814.967 1.596 1.959 2.405 2.931.88 1.057 1.93 2.092 2.661 3.259.579.927-.037 1.38-.552 2.281a84.95 84.95 0 0 1-2.033 3.38c-.625.99-2.157 2.519-2.099 3.731.048 1.009.86 1.311 1.684 1.537 1.892.525 3.843 1.07 5.801 1.271 1.728-1.249 2.388-2.779 4.692-2.977.786-.064 1.524-.06 2.071-.704.467-.55.519-1.288.917-1.874.984-1.438 3.257-.662 4.063-2.227.371-.72.321-1.554.784-2.241.437-.646 1.136-1.089 1.845-1.376 1.346-.544 2.885-.629 3.842-1.861 1.117-1.437 1.128-3.471 2.063-5.023.753-1.248 1.13-2.501.298-3.861-.775-1.261-2.137-1.747-3.541-1.76 1.271-4.145 2.33-8.341 3.103-12.609 1.241-6.875 2.653-14.243-1.168-20.578-3.776-6.263-10.966-9.281-18.092-7.96.642-.833 1.603-2.146 1.419-3.271-.096-.586-.521-.439-.716-.746-.145-.227-.241-1.179-.001-1.408.299-.285 1.507-.268 1.866-.3a17.301 17.301 0 0 1 2.441-.053c1.255.059 2.407.306 3.558.804-.611.14-1.029.406-1.578.711.553 1.397 3.432 2.601 4.758 1.65.99-.71-.246-1.568-.707-2.183-.401-.531-.613-1.166-1.125-1.605l.201-.357c8.871 2.549 15.596 10.212 17.278 19.246.781 4.187.269 8.398-.308 12.577a113.888 113.888 0 0 1-2.504 12.735 112.184 112.184 0 0 1-3.816 12.036 113.97 113.97 0 0 1-3.734 8.694c-.379.786-1.158 1.824-1.127 2.722.028.784.702 1.445 1.487 1.448.987.004 1.353-.872 1.726-1.627a120.005 120.005 0 0 0 2.662-5.774 114.396 114.396 0 0 0 4.247-11.611c2.419-7.902 4.196-16.23 4.698-24.492l.396-.073c.623 1.406 4.636 5.235 5.828 5.578-.848 6.798-2.227 13.52-4.18 20.085a122.392 122.392 0 0 1-2.483 7.463c-.186.503-.455 1.029-.373 1.579.203 1.385 1.982 1.681 2.727.572.717-1.07 1.007-2.648 1.416-3.843a124.52 124.52 0 0 0 4.766-18.323 122.53 122.53 0 0 0 1.031-6.746c.068-.541-.035-1.724.256-2.18.398-.623.852-.175 1.338.215.656.525 3.121 2.913 3.75 3.995.133.225.768.639.809.813.096.417-.368 1.357-.491 1.77a45.23 45.23 0 0 1-3.349 8.143c-.549 1.037-2.102 2.76-1.565 3.994.435.995 1.701 1.175 2.454.428.869-.859 1.427-2.377 1.986-3.462a47.73 47.73 0 0 0 1.8-3.899 48.543 48.543 0 0 0 3.565-17.619 48.366 48.366 0 0 0-.798-9.5M66.41 43.232c-.553 2.081-.563 4.244-.958 6.352-1.128-.081-2.655-.464-3.442.541-.38.489-.412.866-1.102 1.019-.779.171-5.129-4.328-4.105-6.324 1.272-2.485 3.872-3.186 6.199-4.323 1.042-.508 2.14-.885 3.175-.107 1.136.853.534 1.717.233 2.842m17.454 21.926c-1.202-.87-2.122-2.064-3.34-2.909-1.153-.796-2.473-1.151-3.851-1.309a86.396 86.396 0 0 0 1.942-10.188c.21-1.64.055-3.685.933-5.143.714-1.19 2.041-1.965 3.433-1.965 1.727 0 3.263 1.154 3.794 2.788.583 1.796-.031 4.105-.274 5.918a95.061 95.061 0 0 1-2.637 12.808m6.792-29.579c2.719 1.792 4.767 4.527 5.772 7.62.894 2.753.723 5.465.412 8.286a102.546 102.546 0 0 1-1.762 10.703 101.745 101.745 0 0 1-1.343 5.432c-.349 1.259-1.325 3.089-.947 4.386-.764.114-2.071.195-2.657-.451-.5-.553-.172-1.687-.357-2.373-.483-1.779-1.418-2.442-3.116-2.938a97.146 97.146 0 0 0 3.126-16.263c.26-2.465.207-4.801-1.43-6.817a6.988 6.988 0 0 0-5.389-2.561 6.93 6.93 0 0 0-4.87 2.019c-1.565 1.56-1.975 3.466-2.187 5.587-.43 4.289-1.24 8.51-2.301 12.686-.287-1.098-.491-1.533-1.731-1.575-1.466-.049-2.679-.309-3.444-1.683-.38-.683-.922-1.911-.947-2.698-.023-.751.305-1.646.444-2.391.405-2.177.714-4.277.974-6.47.36-3.031 1.622-5.91 3.682-8.169 4.601-5.054 12.344-6.101 18.071-2.33m23.46-1.895c-.031.146-.502.582-.572.675a9.134 9.134 0 0 0-.761 1.158c-.333.605-1.526 3.27-1.726 4.114-.27 1.152-.512 2.333-.752 3.495l-.407-.007c-1.207-7.358-5.384-14.133-11.517-18.401a27.014 27.014 0 0 0-12.248-4.677c-.354-.042-.939.02-1.221-.188-.824-.608-.984-2.36-2.264-2.36-.865 0-1.613.1-2.452-.201-.693-.249-1.148-.688-1.725-1.123-1.146-.86-2.725-.86-4.096-.65-1.02.155-2.438.746-2.136 2.062.275 1.207 1.878 1.851 2.352 3.047-.738.314-1.969.06-2.538.623-.326.325-.325.924-.822 1.089-.562.189-.929-.292-1.309-.603-1.682-1.382-4.307-.773-5.668-2.818-1.53-2.295.086-4.047 2.045-5.421.775-.543 1.64-.845 2.557-1.058 1.046-.244 2.379-.738 3.393-.185.539-.558 1.121-1.918 1.855-2.204.469-.183 1.887-.573 2.341-.249.413.296.303 1.398.017 1.804-.502.707-1.585.706-2.358.724-.139 1.106 1.236 1.111 2.094 1.255.945.161 1.824.332 2.701.735.875.398 1.737.931 2.731.933.253.001 1.017-.006 1.152-.206.111-.161 2.008-1.89 3.05-1.967 1.059-.077 2.313.263 3.35.458a33.28 33.28 0 0 1 3.316.802c7.858 2.33 14.639 7.567 19.038 14.466.787 1.232 1.628 2.511 2.245 3.823.21.449.421.663.335 1.055"/></g></svg>