<svg xmlns="http://www.w3.org/2000/svg" viewBox="0 0 90 90"><defs><style>.cls-1{fill:#901d89}.cls-2{fill:none;stroke:#fff;stroke-linecap:round;stroke-linejoin:round;stroke-width:2px}</style></defs><title>icon-opportunities</title><g id="Layer_2" data-name="Layer 2"><g id="Artwork"><circle class="cls-1" cx="45" cy="45" r="45" transform="rotate(-.5 44.495 44.885)"/><g id="Outline_Icons" data-name="Outline Icons"><g id="Outline_Icons-2" data-name="Outline Icons"><path class="cls-2" d="M59.72 47.65l3.42 8.02h8.02l-6.88 5.73 3.44 9.17-8.02-5.72-8.02 5.72 3.44-9.17-6.88-5.73h8.02l3.46-8.02zM49.27 49.44l-9.04-3.24v-4.68M31.07 41.52v4.68l-9 3.24a5.41 5.41 0 0 0-3.57 5.12V58h24.03"/><path class="cls-2" d="M44.7 32.15c0 6-4.05 10.87-9 10.87s-9-4.87-9-10.87 4-10.85 9-10.85 9 4.86 9 10.85z"/><path class="cls-2" d="M44.63 31.18c-.3 0-.55 0-.86.08-3.08.59-5.06-.52-6.76-3.5-1 2-4.2 3.5-6.81 3.5a7.22 7.22 0 0 1-3.5-.85M50.55 21.3c5 0 9 4.86 9 10.85S55.54 43 50.55 43"/><path class="cls-2" d="M59.52 31.18c-.3 0-.55 0-.86.08-3.08.59-5.06-.52-6.76-3.5M55.13 45.36v-3.84"/></g></g></g></g></svg>