<svg xmlns="http://www.w3.org/2000/svg" viewBox="0 0 90 90"><defs><style>.cls-1{fill:#93d400}.cls-2{fill:none;stroke:#fff;stroke-linecap:round;stroke-linejoin:round;stroke-width:2px}</style></defs><title>icon-lightbulb</title><g id="Layer_2" data-name="Layer 2"><g id="Artwork"><circle class="cls-1" cx="45" cy="45" r="45" transform="rotate(-89.4 45.06 45)"/><circle class="cls-2" cx="44.92" cy="40.73" r="14.6"/><path class="cls-2" d="M38.66 54.28v5.22h12.51v-5.22M40.75 59.5h8.34v4.17h-8.34zM44.92 63.67v4.17M44.92 19.88v2.08M59.66 25.99l-1.47 1.47M65.77 40.73h-2.09M59.66 55.47L58.19 54M30.17 25.99l1.48 1.47M24.07 40.73h2.08M30.17 55.47L31.65 54M46 54.28l2.66-11.52a2.62 2.62 0 0 1 2.55-2 2.09 2.09 0 0 1 0 4.17H38.66a2.09 2.09 0 0 1 0-4.17 2.62 2.62 0 0 1 2.55 2l2.66 11.52"/></g></g></svg>