<svg xmlns="http://www.w3.org/2000/svg" viewBox="0 0 90 90"><defs><style>.cls-1{fill:#93d400}.cls-2{fill:none;stroke:#fff;stroke-linejoin:round;stroke-width:2px}</style></defs><title>icon-abc</title><g id="Layer_2" data-name="Layer 2"><g id="Artwork"><circle class="cls-1" cx="45" cy="45" r="45" transform="rotate(-89.4 45.06 45)"/><rect class="cls-2" x="24.15" y="46.85" width="18.28" height="18.28" rx="3.66" ry="3.66"/><rect class="cls-2" x="47.91" y="46.85" width="18.28" height="18.28" rx="3.66" ry="3.66"/><rect class="cls-2" x="35.11" y="24.92" width="18.28" height="18.28" rx="3.66" ry="3.66"/><path class="cls-2" d="M29.63 50.51h4.57a2.74 2.74 0 0 1 0 5.48h-4.57zM29.63 56h4.57a2.74 2.74 0 0 1 0 5.48h-4.57zM39.68 39.51l4.71-10.91 4.43 10.91M41.26 35.89h6.08M61.72 59.87a5.48 5.48 0 1 1-.14-7.87"/></g></g></svg>