<svg xmlns="http://www.w3.org/2000/svg" viewBox="0 0 90 90"><defs><style>.cls-1{fill:#93d400}.cls-2,.cls-3{fill:none;stroke:#fff;stroke-linejoin:round;stroke-width:2px}.cls-3{stroke-linecap:round}</style></defs><title>icon-school</title><g id="Layer_2" data-name="Layer 2"><g id="Artwork"><circle class="cls-1" cx="45" cy="45" r="45" transform="rotate(-89.4 45.06 45)"/><path class="cls-2" d="M44.39 48.78c1.8 0 .6 1.2 4.19 1.2s7.18-7.18 7.18-12-3-8.38-6.59-8.38-3.59 1.2-4.79 1.2-2.35-1.24-5.1-1.24C39.29 38.76 33 38 33 38c0 4.79 3.59 12 7.18 12s2.42-1.22 4.21-1.22z"/><path class="cls-3" d="M44.39 30.82v-2.93A2.4 2.4 0 0 0 42 25.5h-2.39"/><path class="cls-2" d="M47.17 26.81a5.39 5.39 0 0 0 5.39-5.39 5.39 5.39 0 0 0-5.39 5.39z"/><path class="cls-3" d="M20.94 66.3h10.2a4.08 4.08 0 0 0 4.08-4.08v-4.08a4.08 4.08 0 0 0-4.08-4.08h-10.2"/><path class="cls-2" d="M31.13 66.3h33.66c2.25 0 3.06-1.83 3.06-4.08v-4.08c0-2.25-.81-4.08-3.06-4.08H31.13M59.69 54.06V66.3M55.61 54.06V66.3M47.45 54.06V66.3M43.37 54.06V66.3"/><path class="cls-3" d="M31.13 62.22h-8.15M31.13 58.14h-8.15"/></g></g></svg>