<svg xmlns="http://www.w3.org/2000/svg" viewBox="0 0 90 90"><defs><style>.cls-1{fill:#0086fa}.cls-2{fill:none;stroke:#fff;stroke-linecap:round;stroke-linejoin:round;stroke-width:2px}</style></defs><title>icon-awards</title><g id="Layer_2" data-name="Layer 2"><g id="Artwork"><circle class="cls-1" cx="45" cy="45" r="45" transform="rotate(-.5 44.495 44.885)"/><g id="Outline_Icons" data-name="Outline Icons"><g id="New_icons" data-name="New icons"><path class="cls-2" d="M27.15 55.92c-.58 4.13-8.85 6.2-8.85 6.2l5.55 3.33-2.22 4.45s10-1.11 10-5.55a2.17 2.17 0 0 0-2.22-2.22M60.52 55.92c.58 4.14 8.85 6.2 8.85 6.2l-5.55 3.33L66 69.9s-10-1.11-10-5.55a2.17 2.17 0 0 1 2.22-2.22"/><path class="cls-2" d="M43.84 55.46c11.1 0 14.43 6.66 14.43 6.66l4.44-12.21a34.86 34.86 0 0 0-37.75 0l4.44 12.21s3.33-6.66 14.44-6.66zM43.84 18.82l3.33 6.66h7.77l-6.66 4.44 3.33 8.89-7.77-5.55-7.78 5.55 3.33-8.89-6.66-4.44h7.78l3.33-6.66zM26.07 26.59l2.59 5.55h5.18l-4.31 4.32 1.72 6.05-5.18-3.24-5.18 3.24 1.72-6.05-4.31-4.32h5.18l2.59-5.55zM61.6 26.59l2.59 5.55h5.18l-4.31 4.32 1.72 6.05-5.18-3.24-5.18 3.24 1.73-6.05-4.32-4.32h5.18l2.59-5.55z"/></g></g></g></g></svg>