<svg xmlns="http://www.w3.org/2000/svg" viewBox="0 0 90 90"><defs><style>.cls-1{fill:#e95924}.cls-2{fill:none;stroke:#fff;stroke-linejoin:round;stroke-width:2px}</style></defs><title>icon-volunteering</title><g id="Layer_2" data-name="Layer 2"><g id="Artwork"><circle class="cls-1" cx="45" cy="45" r="45" transform="rotate(-89.5 45.003 45.002)"/><g id="Outline_Icons" data-name="Outline Icons"><path class="cls-2" d="M45 16.76l2.52 6.31h6.31l-5.05 4.26 1.89 6.86L45 29.74l-5.67 4.4 1.89-6.8-5.05-4.27h6.31L45 16.76zM24.83 31.89l2.52 6.31h6.3l-5.04 4.26 1.89 6.86-5.67-4.45-5.68 4.4 1.89-6.8L16 38.2h6.3l2.53-6.31zM65.17 31.89l2.53 6.31H74l-5.04 4.26 1.89 6.86-5.68-4.45-5.67 4.4 1.89-6.8-5.04-4.27h6.3l2.52-6.31zM57.61 54.59l2.52 6.3h6.31l-5.05 4.27 1.89 6.86-5.67-4.45-5.67 4.39 1.89-6.79-5.05-4.28h6.31l2.52-6.3zM32.39 54.59l2.52 6.3h6.31l-5.05 4.27 1.89 6.86-5.67-4.45-5.67 4.39 1.89-6.79-5.04-4.28h6.3l2.52-6.3z"/></g></g></g></svg>