<svg xmlns="http://www.w3.org/2000/svg" width="358" height="114" viewBox="-.256 -.379 358 114"><path fill="#FFF" d="M117.464 83.135a10.727 10.727 0 0 0 4.614 1.025c3.667 0 6.82-1.814 6.82-6.23v-2.05c0-.75.119-1.42.119-1.42h-.079c-1.183 2.248-3.193 3.707-6.309 3.707-5.323 0-8.832-4.181-8.832-10.291 0-5.836 3.233-9.897 8.754-9.897 5.125 0 6.466 3.627 6.466 3.627h.079s-.079-.275-.079-.67v-1.617c0-.512.316-.866.946-.866h.631c.632 0 .986.354.986.985v18.375c0 6.309-4.692 8.752-9.423 8.752-2.052 0-4.062-.434-5.718-1.182-.592-.277-.749-.671-.473-1.262l.236-.553c.277-.511.632-.669 1.262-.433m11.474-15.062c0-5.875-2.838-7.688-6.151-7.688-4.022 0-6.23 2.839-6.23 7.413 0 4.967 2.563 7.965 6.466 7.965 3.156-.001 5.915-1.932 5.915-7.69M146.328 57.979c5.283 0 8.28 3.825 8.28 9.463 0 .553-.434.986-1.025.986H139.31c.118 5.047 3.588 7.926 7.688 7.926 2.484 0 4.298-1.105 5.205-1.814.552-.354.986-.276 1.301.236l.316.473c.276.474.197.947-.276 1.302-1.065.789-3.43 2.208-6.625 2.208-5.914 0-10.369-4.258-10.369-10.369 0-6.507 4.416-10.411 9.778-10.411m5.56 8.438c-.158-4.18-2.682-6.229-5.639-6.229-3.312 0-6.191 2.208-6.821 6.229h12.46zM159.5 59.438c0-.631.355-.985.985-.985h.71c.591 0 .946.354.946.985v2.287c0 .787-.157 1.42-.157 1.42h.078c.749-1.814 3.352-5.166 8.004-5.166 4.93 0 6.664 2.8 6.664 7.688v11.632c0 .631-.355.986-.985.986h-.749c-.632 0-.947-.355-.947-.986V66.377c0-3.115-.512-5.875-4.338-5.875-4.218 0-7.53 3.469-7.53 8.084v8.713c0 .631-.316.986-.947.986h-.749c-.63 0-.985-.355-.985-.986V59.438zM191.202 57.979c5.283 0 8.28 3.825 8.28 9.463 0 .553-.434.986-1.025.986h-14.273c.119 5.047 3.589 7.926 7.688 7.926 2.484 0 4.298-1.105 5.205-1.814.552-.354.986-.276 1.302.236l.314.473c.277.474.197.947-.276 1.302-1.063.789-3.429 2.208-6.624 2.208-5.914 0-10.369-4.258-10.369-10.369 0-6.507 4.416-10.411 9.778-10.411m5.56 8.438c-.158-4.18-2.682-6.229-5.639-6.229-3.313 0-6.191 2.208-6.82 6.229h12.459zM204.374 59.438c0-.631.354-.985.985-.985h.709c.592 0 .947.354.947.985v2.682c0 .867-.158 1.577-.158 1.577h.078c.947-2.879 3.234-5.362 6.389-5.362.71 0 1.025.315 1.025.946v.709c0 .632-.434.985-1.104.985-4.179 0-6.19 4.772-6.19 8.912v7.412c0 .631-.315.986-.945.986h-.75c-.631 0-.985-.355-.985-.986V59.438zM228.111 66.141h1.145v-.631c0-3.824-2.092-5.127-4.891-5.127-2.208 0-3.903.828-4.811 1.382-.552.274-.985.196-1.34-.317l-.236-.393c-.316-.514-.237-1.025.275-1.342 1.025-.631 3.233-1.733 6.309-1.733 4.73 0 7.373 2.642 7.373 7.608v11.711c0 .631-.315.986-.945.986h-.632c-.632 0-.986-.315-.986-.986v-1.577c0-.906.119-1.498.119-1.498h-.079c.04 0-1.773 4.534-6.703 4.534-3.351 0-6.703-1.973-6.703-5.797 0-6.466 8.28-6.82 12.105-6.82m-4.929 10.369c3.826 0 6.074-3.941 6.074-7.412v-.946h-1.104c-3.116 0-9.386.119-9.386 4.574 0 1.853 1.459 3.784 4.416 3.784M238.482 60.858h-1.655c-.632 0-.946-.315-.946-.946v-.315c0-.631.314-.986.946-.986h1.694v-4.653c0-.631.355-.987.986-.987h.71c.632 0 .946.356.946.987v4.653h4.021c.631 0 .985.355.985.986v.315c0 .631-.354.946-.985.946h-4.021v9.937c0 4.573 2.799 5.125 4.337 5.204.789.079 1.063.314 1.063.985v.513c0 .631-.313.946-1.104.946-4.337 0-6.979-2.642-6.979-7.294V60.858zM250.43 52.97v-1.419c0-.631.315-.985.947-.985h.985c.631 0 .946.354.946.985v1.419c0 .632-.315.947-.946.947h-.985c-.632 0-.947-.315-.947-.947m.08 6.468c0-.631.354-.985.985-.985h.749c.631 0 .946.354.946.985v17.861c0 .631-.315.986-.946.986h-.749c-.631 0-.985-.355-.985-.986V59.438zM268.568 57.98c5.795 0 10.488 4.415 10.488 10.291 0 5.991-4.693 10.487-10.449 10.487-5.795 0-10.487-4.496-10.487-10.487 0-5.876 4.693-10.291 10.448-10.291m.039 18.374c4.221 0 7.689-3.471 7.689-8.083 0-4.495-3.469-7.888-7.689-7.888-4.258 0-7.728 3.393-7.728 7.888.001 4.612 3.471 8.083 7.728 8.083M283.948 59.438c0-.631.354-.985.985-.985h.709c.593 0 .947.354.947.985v2.287c0 .787-.158 1.42-.158 1.42h.078c.75-1.814 3.353-5.166 8.004-5.166 4.931 0 6.664 2.8 6.664 7.688v11.632c0 .631-.354.986-.984.986h-.749c-.632 0-.947-.355-.947-.986V66.377c0-3.115-.512-5.875-4.337-5.875-4.219 0-7.531 3.469-7.531 8.084v8.713c0 .631-.314.986-.945.986h-.75c-.631 0-.985-.355-.985-.986V59.438z"/><path fill="#93D400" d="M320.185 49.817c8.478 0 14.472 6.269 14.472 14.273 0 8.241-5.994 14.668-14.472 14.668s-14.47-6.427-14.47-14.668c0-8.004 5.992-14.273 14.47-14.273m0 24.289c5.363 0 9.228-4.338 9.228-10.016 0-5.44-3.864-9.621-9.228-9.621-5.362 0-9.226 4.181-9.226 9.621 0 5.678 3.863 10.016 9.226 10.016M338.562 59.833c0-1.064.554-1.655 1.617-1.655h1.536c1.066 0 1.617.591 1.617 1.655v1.223c0 .434-.078.907-.078.907h.078c.867-1.696 3.076-4.259 7.138-4.259 4.456 0 7.019 2.326 7.019 7.65v11.275c0 1.104-.553 1.656-1.656 1.656h-1.695c-1.065 0-1.656-.553-1.656-1.656V66.377c0-2.444-.631-4.102-3.154-4.102-3.549 0-5.797 2.957-5.797 6.586v7.768c0 1.104-.551 1.656-1.615 1.656h-1.735c-1.063 0-1.617-.553-1.617-1.656V59.833zM11.534 40.001c.074-.7.279-1.439-.243-2.017a1.322 1.322 0 0 0-1.653-.265c-1.169.678-.889 3.159-1.04 4.347a44.863 44.863 0 0 1-2.671 10.575 44.835 44.835 0 0 1-2.217 4.826c-.351.661-.96 1.39-.762 2.183a1.376 1.376 0 0 0 1.306 1.027c.986 0 1.363-1.018 1.754-1.746a47.078 47.078 0 0 0 3.449-8.165c1.111-3.52 1.69-7.103 2.077-10.765"/><path fill="#93D400" d="M84.126 35.204c-.254-1.374-.539-2.779-.962-4.112-.241-.76-.609-1.488-.876-2.26a43.655 43.655 0 0 0-7.948-13.904c-.662-.782-1.646-2.41-2.888-1.899-.963.396-1.021 1.505-.466 2.24.767 1.017 1.711 1.915 2.493 2.931.198.257.641.675.69.975.028.171-.256.618-.286.857-.635-.043-1.624-.069-1.931.63-.339.769.679.884 1.165 1.312-1.539.717-1.308 2.479-.158 3.441.959.803 3.159.788 3.962-.237.756.686.716 1.559.935 2.475-.512.111-.989.406-1.255.868-.117.202-.132.602-.329.733-.279.183-1.204-.154-1.554-.198-.557-.071-1.045-.04-1.582.147-1.899-3.192-3.69-6.432-6.239-9.239C61.09 13.57 52.887 9.563 44.251 9.058c-.54-.032-1.08-.05-1.62-.055-.426-.004-1.107.15-1.498.018-.668-.224-1.271-1.435-1.848-1.869-.784-.589-1.569-.798-2.514-.981-.81-.157-1.582-.443-2.389-.137-1.348.508-2.185 1.774-3.425 2.198-1.616-.016-3.501-.648-3.777-2.422 6.752-2.773 14.004-3.689 21.293-2.572-.62 1.197-.393 2.45.575 3.391 1.164 1.131 2.479 1.1 3.977.908 1.3-.167 2.572-.083 3.873-.045.888.025 1.653-.101 1.984-1.044a39.826 39.826 0 0 1 3.086 1.613c.529.309 1.051.629 1.565.961.473.305 1.029.834 1.574.989 1.078.306 2.075-.757 1.655-1.827-.39-.991-2.062-1.686-2.925-2.206A41.772 41.772 0 0 0 48.878.502C31.399-2.28 13.132 6.698 4.954 22.484A46.268 46.268 0 0 0 .651 34.789a44.782 44.782 0 0 0-.546 3.555c-.095.847-.34 1.908.536 2.443 2.274 1.392 2.238-2.961 2.411-4.045 1.332-8.354 5.298-16.25 11.191-22.301-.073 2.529-1.215 4.546-1.982 6.881-.959 2.922-1.613 6.684-.677 9.692.368 1.184 1.629 1.636 2.229 2.657.475.808.197 1.746.17 2.634-.059 1.952-.199 4.21.35 6.105.336 1.159.987 2.263 1.601 3.293.216.363.761.905.846 1.312.081.392-.178 1.037-.269 1.445a53.625 53.625 0 0 1-3.108 9.656 53.342 53.342 0 0 1-4.485 8.281c-.61.922-1.986 2.705-.226 3.365 1.483.555 2.409-1.711 3.015-2.667a56.202 56.202 0 0 0 4.453-8.534 56.21 56.21 0 0 0 1.798-4.986c.468-1.519.703-3.173 1.257-4.655 1.819 1.32 4.115.854 6.11 1.681-.718 3.785-1.968 7.45-3.489 10.985a62.535 62.535 0 0 1-5.532 10.145c-.71 1.056-3.06 3.178-1.719 4.475 1.49 1.439 2.922-1.412 3.592-2.389 4.24-6.176 7.334-13.041 9.295-20.265.879 1.658 2.402 1.395 4.034 1.518-.001 1.368-1.372 2.061-1.805 3.275-.349.978-.419 2.017-.874 2.964-.352.735-.877 1.396-1.072 2.201-.191.793.007 1.555.319 2.291.145.342.317.672.506.993.15.254.601.702.662.991.154.736-1.283 2.572-1.676 3.252-1.602 2.775-3.237 5.512-5.117 8.109-.375.52-.774.994-.613 1.685a1.366 1.366 0 0 0 1.307 1.057c.859.003 1.283-.823 1.718-1.429a71.533 71.533 0 0 0 1.611-2.344c1.702-2.584 3.173-5.291 4.684-7.986.739.877 1.449 1.777 2.183 2.659.799.959 1.752 1.897 2.415 2.958.527.842-.033 1.253-.499 2.07a76.738 76.738 0 0 1-1.847 3.069c-.568.899-1.959 2.288-1.905 3.388.045.916.782 1.189 1.528 1.396 1.718.476 3.489.972 5.267 1.153 1.568-1.135 2.167-2.522 4.26-2.7.713-.062 1.383-.056 1.88-.64.424-.5.47-1.17.832-1.701.893-1.309 2.957-.602 3.688-2.023.336-.652.292-1.41.712-2.033.397-.588 1.03-.99 1.674-1.25 1.222-.494 2.619-.57 3.488-1.688 1.014-1.306 1.024-3.151 1.874-4.562.683-1.132 1.025-2.271.269-3.503-.703-1.147-1.938-1.586-3.214-1.6 1.154-3.761 2.116-7.573 2.816-11.445 1.128-6.242 2.409-12.932-1.059-18.682-3.429-5.685-9.955-8.427-16.425-7.227.583-.755 1.456-1.947 1.289-2.969-.087-.533-.472-.398-.65-.678-.131-.206-.219-1.07-.001-1.277.272-.259 1.368-.244 1.695-.274a16.068 16.068 0 0 1 2.216-.048c1.139.055 2.186.278 3.23.73-.556.129-.934.369-1.433.646.502 1.267 3.115 2.361 4.318 1.498.899-.645-.222-1.424-.641-1.98-.365-.484-.557-1.058-1.021-1.459l.182-.323c8.053 2.314 14.157 9.27 15.686 17.469.709 3.801.244 7.624-.28 11.418a103.557 103.557 0 0 1-2.272 11.563 102.221 102.221 0 0 1-3.466 10.927 102.58 102.58 0 0 1-3.39 7.889c-.343.715-1.051 1.655-1.022 2.473.025.713.637 1.313 1.349 1.314.898.004 1.228-.791 1.567-1.477a104.173 104.173 0 0 0 6.273-15.783c2.195-7.173 3.809-14.733 4.264-22.234l.359-.066c.567 1.276 4.209 4.752 5.292 5.064a112.905 112.905 0 0 1-3.794 18.233 112.305 112.305 0 0 1-2.254 6.775c-.168.457-.414.934-.339 1.435.185 1.257 1.8 1.522 2.476.517.65-.97.914-2.402 1.285-3.487a112.842 112.842 0 0 0 4.326-16.634 117.447 117.447 0 0 0 .937-6.123c.061-.49-.032-1.564.232-1.978.362-.566.772-.16 1.215.195.595.475 2.833 2.643 3.404 3.626.119.206.696.581.733.74.088.378-.334 1.231-.446 1.604a40.906 40.906 0 0 1-3.039 7.394c-.498.939-1.908 2.504-1.421 3.623.393.906 1.544 1.069 2.227.392.789-.782 1.296-2.158 1.804-3.144a43.738 43.738 0 0 0 1.633-3.541 44.036 44.036 0 0 0 3.237-15.995 44.235 44.235 0 0 0-.727-8.619m-56.89 4.041c-.502 1.889-.512 3.853-.869 5.768-1.025-.075-2.412-.423-3.126.491-.345.442-.374.784-1 .922-.708.156-4.656-3.929-3.727-5.741 1.156-2.254 3.514-2.89 5.627-3.922.946-.463 1.944-.805 2.882-.1 1.033.776.485 1.56.213 2.582m15.845 19.904c-1.091-.789-1.926-1.874-3.033-2.639-1.046-.725-2.245-1.047-3.495-1.19a78.682 78.682 0 0 0 1.764-9.247c.191-1.489.049-3.347.845-4.67.649-1.079 1.853-1.783 3.117-1.783 1.568 0 2.962 1.048 3.444 2.53.53 1.631-.028 3.73-.248 5.373a86.585 86.585 0 0 1-2.394 11.626m6.165-26.85c2.469 1.627 4.326 4.108 5.239 6.916.812 2.499.658 4.963.375 7.522a93.63 93.63 0 0 1-2.817 14.647c-.318 1.144-1.203 2.806-.86 3.983-.694.103-1.88.175-2.413-.411-.454-.5-.155-1.532-.324-2.154-.439-1.616-1.287-2.217-2.829-2.668a88.26 88.26 0 0 0 2.838-14.763c.234-2.237.187-4.358-1.299-6.187a6.34 6.34 0 0 0-4.892-2.327c-1.648 0-3.254.67-4.421 1.832-1.42 1.416-1.791 3.149-1.984 5.075-.39 3.893-1.126 7.724-2.089 11.513-.261-.994-.446-1.391-1.572-1.429-1.329-.045-2.431-.28-3.126-1.528-.346-.619-.838-1.735-.861-2.449-.021-.683.278-1.492.404-2.169.367-1.977.648-3.885.885-5.875.326-2.75 1.472-5.363 3.341-7.416 4.177-4.586 11.205-5.537 16.405-2.112m21.297-1.722c-.029.134-.456.527-.52.612a8.5 8.5 0 0 0-.691 1.051c-.301.552-1.384 2.969-1.565 3.737-.245 1.045-.464 2.119-.683 3.173l-.371-.009c-1.095-6.678-4.886-12.829-10.453-16.703a24.558 24.558 0 0 0-11.12-4.244c-.32-.039-.852.016-1.107-.172-.748-.552-.895-2.143-2.055-2.143-.786 0-1.464.092-2.226-.181-.631-.226-1.043-.626-1.566-1.019-1.04-.783-2.473-.783-3.719-.592-.924.141-2.212.677-1.938 1.872.25 1.097 1.705 1.679 2.135 2.766-.67.285-1.787.053-2.304.566-.296.294-.296.838-.747.989-.51.17-.843-.265-1.188-.549-1.526-1.255-3.908-.7-5.145-2.556-1.389-2.084.077-3.675 1.856-4.922.705-.494 1.489-.769 2.321-.962.95-.221 2.16-.67 3.081-.166.489-.507 1.018-1.74 1.684-2.001.425-.167 1.713-.522 2.125-.227.375.269.275 1.269.014 1.637-.456.642-1.439.641-2.14.658-.127 1.004 1.122 1.008 1.901 1.14.858.145 1.655.302 2.451.665.795.364 1.577.847 2.479.85.23 0 .924-.007 1.048-.188.1-.147 1.822-1.717 2.768-1.786.962-.069 2.099.239 3.041.416a30.18 30.18 0 0 1 3.01.728c7.134 2.115 13.289 6.869 17.283 13.131.715 1.12 1.478 2.279 2.037 3.472.191.406.382.603.304.957"/><path fill="#FFF" d="M32.482 104.961c.048-.166.167-.237.322-.237h.393c.155 0 .274.071.322.237l2.882 7.791c.06.215-.023.346-.237.346h-.263c-.167 0-.286-.071-.333-.238l-.894-2.43h-3.36l-.881 2.43c-.048.167-.167.238-.334.238h-.25c-.226 0-.309-.131-.25-.346l2.883-7.791zm1.955 4.754l-1.108-3.038c-.131-.394-.31-1.097-.31-1.097h-.023s-.191.703-.322 1.097l-1.12 3.038h2.883zM51.659 105.236c0-.429.226-.655.655-.655h2.883c1.656 0 2.776 1.215 2.776 2.93 0 1.717-1.12 2.955-2.776 2.955h-1.453v1.978c0 .429-.227.655-.656.655h-.774c-.429 0-.655-.227-.655-.655v-7.208zm3.109 3.442c.727 0 1.084-.488 1.084-1.168 0-.678-.357-1.143-1.048-1.143h-1.06v2.311h1.024zM68.372 104.438c2.645 0 4.456 1.905 4.456 4.348 0 2.502-1.811 4.455-4.456 4.455s-4.456-1.953-4.456-4.455c0-2.443 1.811-4.348 4.456-4.348m0 6.896c1.346 0 2.299-1.096 2.299-2.549 0-1.394-.953-2.442-2.299-2.442-1.347 0-2.299 1.049-2.299 2.442 0 1.454.952 2.549 2.299 2.549M79.391 105.235c0-.428.226-.654.655-.654h.774c.429 0 .655.227.655.654v7.207c0 .431-.226.656-.655.656h-.774c-.429 0-.655-.226-.655-.656v-7.207zM88.479 105.235c0-.428.227-.654.656-.654h.929c.369 0 .607.131.786.439l2.097 3.539c.333.561.714 1.453.714 1.453h.025s-.096-.916-.096-1.453v-3.324c0-.428.226-.654.655-.654h.775c.428 0 .655.227.655.654v7.207c0 .431-.227.656-.655.656h-.93c-.357 0-.595-.131-.774-.44l-2.109-3.526c-.333-.56-.714-1.453-.714-1.453h-.025s.096.916.096 1.453v3.311c0 .431-.227.656-.655.656h-.774c-.429 0-.656-.226-.656-.656v-7.208zM104.513 106.368h-1.93c-.429 0-.655-.227-.655-.655v-.478c0-.428.226-.654.655-.654h5.945c.429 0 .655.227.655.654v.478c0 .429-.226.655-.655.655h-1.93v6.074c0 .431-.227.656-.655.656h-.774c-.429 0-.656-.226-.656-.656v-6.074zM115.103 111.491l.369-.536c.238-.347.512-.37.905-.155.274.143.81.523 1.549.523.62 0 .906-.262.906-.596 0-1.203-3.765-1.012-3.765-3.681 0-1.573 1.31-2.608 3.037-2.608.989 0 1.895.345 2.3.631.345.25.381.548.203.894l-.286.56c-.239.465-.56.394-.894.227-.393-.191-.786-.393-1.346-.393-.655 0-.929.262-.929.596 0 1.238 3.764.939 3.764 3.633 0 1.43-1.072 2.657-2.99 2.657-1.191 0-2.252-.488-2.704-.847-.25-.204-.429-.466-.119-.905M140.354 104.438c2.645 0 4.455 1.905 4.455 4.348 0 2.502-1.81 4.455-4.455 4.455-2.646 0-4.456-1.953-4.456-4.455 0-2.443 1.81-4.348 4.456-4.348m0 6.896c1.346 0 2.299-1.096 2.299-2.549 0-1.394-.953-2.442-2.299-2.442-1.347 0-2.3 1.049-2.3 2.442.001 1.454.953 2.549 2.3 2.549M151.373 105.235c0-.428.227-.654.655-.654h3.907c.43 0 .656.227.656.654v.478c0 .429-.226.655-.656.655h-2.477v1.787h1.941c.43 0 .656.227.656.654v.478c0 .428-.226.655-.656.655h-1.941v2.5c0 .431-.227.656-.655.656h-.775c-.428 0-.655-.226-.655-.656v-7.207zM171.824 105.235c0-.428.226-.654.655-.654h.774c.429 0 .655.227.655.654v6.076h2.824c.429 0 .655.227.655.654v.477c0 .431-.226.656-.655.656h-4.253c-.429 0-.655-.226-.655-.656v-7.207zM183.605 105.235c0-.428.226-.654.654-.654h.774c.429 0 .655.227.655.654v7.207c0 .431-.227.656-.655.656h-.774c-.429 0-.654-.226-.654-.656v-7.207zM196.732 104.438c1.357 0 2.418.5 2.764.75.357.263.394.535.166.904l-.309.49c-.227.356-.514.381-.906.178s-.845-.418-1.584-.418c-1.704 0-2.454 1.146-2.454 2.432 0 1.572 1.119 2.561 2.419 2.561 1.215 0 1.75-.691 1.75-.691v-.582h-.548c-.428 0-.655-.227-.655-.655v-.465c0-.429.228-.655.655-.655h1.74c.428 0 .655.227.655.655v3.502c0 .43-.228.655-.655.655h-.394c-.43 0-.655-.226-.655-.512v-.025c0-.069.012-.118.012-.118h-.022s-.752.799-2.265.799c-2.192 0-4.192-1.668-4.192-4.349 0-2.599 1.869-4.456 4.478-4.456M207.096 105.235c0-.428.227-.654.654-.654h.775c.428 0 .654.227.654.654v2.753h3.098v-2.753c0-.428.227-.654.654-.654h.775c.43 0 .656.227.656.654v7.207c0 .431-.227.656-.656.656h-.775c-.428 0-.654-.226-.654-.656v-2.68h-3.098v2.68c0 .431-.227.656-.654.656h-.775c-.428 0-.654-.226-.654-.656v-7.207zM223.201 106.368h-1.93c-.43 0-.655-.227-.655-.655v-.478c0-.428.226-.654.655-.654h5.945c.428 0 .654.227.654.654v.478c0 .429-.227.655-.654.655h-1.931v6.074c0 .431-.228.656-.655.656h-.774c-.429 0-.655-.226-.655-.656v-6.074zM243.318 105.02c0-.189.095-.297.286-.297h4.133c.19 0 .298.107.298.297v.145c0 .19-.107.297-.298.297h-3.597v3.051h2.883c.191 0 .297.095.297.285v.155c0 .19-.105.297-.297.297h-2.883v3.11h3.812c.191 0 .298.107.298.298v.144c0 .19-.106.297-.298.297h-4.348c-.191 0-.286-.106-.286-.297v-7.782zM255.266 105.02c0-.189.096-.297.286-.297h.286c.154 0 .262.06.357.191l4.146 5.836c.286.418.69 1.133.69 1.133h.024s-.072-.69-.072-1.133v-5.73c0-.189.107-.297.3-.297h.236c.191 0 .287.107.287.297v7.781c0 .19-.096.297-.287.297h-.286a.379.379 0 0 1-.345-.19l-4.158-5.838a20.45 20.45 0 0 1-.691-1.131h-.023s.072.69.072 1.131v5.731c0 .19-.107.297-.286.297h-.25c-.19 0-.286-.106-.286-.297v-7.781zM271.406 105.461h-2.703c-.191 0-.299-.106-.299-.297v-.144c0-.19.107-.297.299-.297h6.242c.19 0 .297.106.297.297v.144c0 .19-.106.297-.297.297h-2.717v7.34c0 .189-.095.297-.285.297h-.238c-.191 0-.299-.107-.299-.297v-7.34zM281.842 105.02c0-.189.096-.297.286-.297h4.134c.189 0 .299.107.299.297v.145c0 .19-.109.297-.299.297h-3.598v3.051h2.883c.191 0 .298.095.298.285v.155c0 .19-.106.297-.298.297h-2.883v3.11h3.812c.191 0 .298.107.298.298v.144c0 .19-.106.297-.298.297h-4.348c-.19 0-.286-.106-.286-.297v-7.782zM293.789 105.02c0-.189.096-.296.287-.296h2.263c.786 0 1.19.083 1.524.237.752.357 1.239 1.085 1.239 2.098 0 1.131-.644 2.049-1.584 2.311v.023s.083.107.214.334l1.633 3.026c.106.202.023.345-.203.345h-.31a.36.36 0 0 1-.345-.203l-1.787-3.322h-2.109v3.229c0 .189-.107.297-.285.297h-.25c-.191 0-.287-.107-.287-.297v-7.782zm2.812 3.813c1.013 0 1.656-.702 1.656-1.75 0-.668-.322-1.215-.882-1.467-.238-.105-.488-.153-1.096-.153h-1.668v3.37h1.99zM306.404 105.02c0-.189.096-.297.287-.297h2.607c1.501 0 2.586.978 2.586 2.526 0 1.56-1.085 2.56-2.586 2.56h-2.072v2.991c0 .191-.107.298-.285.298h-.25c-.191 0-.287-.106-.287-.298v-7.78zm2.787 4.051c1.121 0 1.848-.678 1.848-1.821 0-1.132-.727-1.787-1.835-1.787h-1.978v3.608h1.965zM318.781 105.02c0-.189.096-.296.286-.296h2.263c.786 0 1.191.083 1.525.237.751.357 1.238 1.085 1.238 2.098 0 1.131-.644 2.049-1.584 2.311v.023s.084.107.215.334l1.632 3.026c.106.202.024.345-.202.345h-.311a.36.36 0 0 1-.344-.203l-1.787-3.322h-2.109v3.229c0 .189-.108.297-.286.297h-.25c-.19 0-.286-.107-.286-.297v-7.782zm2.811 3.813c1.014 0 1.656-.702 1.656-1.75 0-.668-.322-1.215-.881-1.467-.238-.105-.488-.153-1.097-.153h-1.667v3.37h1.989zM331.396 105.02c0-.189.095-.297.285-.297h.25c.18 0 .287.107.287.297v7.781c0 .19-.107.297-.287.297h-.25c-.19 0-.285-.106-.285-.297v-7.781zM339.413 111.942l.144-.178c.119-.143.25-.154.418-.035.285.236.987.727 1.929.727 1.001 0 1.704-.561 1.704-1.43 0-2.109-4.17-1.608-4.17-4.206 0-1.369 1.156-2.239 2.621-2.239 1 0 1.728.417 2.037.655.144.106.166.237.071.394l-.108.19c-.105.179-.262.179-.416.083-.297-.202-.846-.536-1.607-.536-.954 0-1.752.524-1.752 1.405 0 2.014 4.17 1.479 4.17 4.17 0 1.287-.953 2.3-2.55 2.3a3.939 3.939 0 0 1-2.454-.882c-.12-.119-.156-.25-.037-.418M351.54 105.02c0-.189.095-.297.286-.297h4.134c.19 0 .298.107.298.297v.145c0 .19-.107.297-.298.297h-3.599v3.051h2.884c.19 0 .298.095.298.285v.155c0 .19-.107.297-.298.297h-2.884v3.11h3.813c.191 0 .299.107.299.298v.144c0 .19-.107.297-.299.297h-4.348c-.191 0-.286-.106-.286-.297v-7.782z"/></svg>