<?xml version="1.0" encoding="utf-8"?>
<!-- Generator: Adobe Illustrator 15.1.0, SVG Export Plug-In . SVG Version: 6.00 Build 0)  -->
<!DOCTYPE svg PUBLIC "-//W3C//DTD SVG 1.1//EN" "http://www.w3.org/Graphics/SVG/1.1/DTD/svg11.dtd">
<svg version="1.1" id="Layer_1" xmlns="http://www.w3.org/2000/svg" xmlns:xlink="http://www.w3.org/1999/xlink" x="0px" y="0px"
	 width="165.597px" height="139.856px" viewBox="0 0 165.597 139.856" enable-background="new 0 0 165.597 139.856"
	 xml:space="preserve">
<g>
	<path fill="#FFFFFF" d="M3.693,137.561c0.58,0.264,1.61,0.686,3.089,0.686c2.453,0,4.565-1.214,4.565-4.17v-1.372
		c0-0.502,0.079-0.952,0.079-0.952h-0.053c-0.792,1.505-2.139,2.483-4.224,2.483c-3.563,0-5.911-2.798-5.911-6.89
		c0-3.905,2.163-6.625,5.859-6.625c3.43,0,4.328,2.43,4.328,2.43h0.053c0,0-0.053-0.188-0.053-0.449v-1.082
		c0-0.343,0.211-0.58,0.633-0.58h0.422c0.424,0,0.661,0.237,0.661,0.659v12.3c0,4.222-3.141,5.858-6.308,5.858
		c-1.373,0-2.719-0.29-3.827-0.791c-0.397-0.188-0.502-0.449-0.317-0.846l0.158-0.37C3.034,137.506,3.271,137.402,3.693,137.561
		 M11.374,127.479c0-3.935-1.9-5.146-4.117-5.146c-2.693,0-4.171,1.9-4.171,4.96c0,3.327,1.716,5.332,4.329,5.332
		C9.526,132.624,11.374,131.332,11.374,127.479"/>
	<path fill="#FFFFFF" d="M23.014,120.722c3.537,0,5.543,2.56,5.543,6.334c0,0.37-0.291,0.66-0.687,0.66h-9.554
		c0.079,3.379,2.401,5.304,5.146,5.304c1.663,0,2.877-0.738,3.483-1.213c0.369-0.239,0.66-0.185,0.871,0.158l0.211,0.316
		c0.186,0.317,0.132,0.634-0.185,0.87c-0.712,0.529-2.295,1.479-4.435,1.479c-3.959,0-6.94-2.852-6.94-6.943
		C16.469,123.335,19.425,120.722,23.014,120.722 M26.735,126.37c-0.105-2.799-1.795-4.171-3.773-4.171
		c-2.219,0-4.145,1.479-4.566,4.171H26.735z"/>
	<path fill="#FFFFFF" d="M31.831,121.698c0-0.423,0.238-0.659,0.66-0.659h0.475c0.396,0,0.633,0.236,0.633,0.659v1.529
		c0,0.529-0.104,0.95-0.104,0.95h0.052c0.502-1.213,2.243-3.458,5.358-3.458c3.3,0,4.461,1.874,4.461,5.148v7.786
		c0,0.422-0.238,0.658-0.66,0.658h-0.501c-0.423,0-0.634-0.236-0.634-0.658v-7.311c0-2.085-0.344-3.933-2.904-3.933
		c-2.823,0-5.041,2.321-5.041,5.409v5.834c0,0.422-0.211,0.658-0.633,0.658h-0.501c-0.422,0-0.66-0.236-0.66-0.658V121.698z"/>
	<path fill="#FFFFFF" d="M53.051,120.722c3.536,0,5.543,2.56,5.543,6.334c0,0.37-0.291,0.66-0.686,0.66h-9.554
		c0.078,3.379,2.4,5.304,5.146,5.304c1.663,0,2.877-0.738,3.484-1.213c0.369-0.239,0.66-0.185,0.871,0.158l0.21,0.316
		c0.186,0.317,0.133,0.634-0.185,0.87c-0.712,0.529-2.295,1.479-4.434,1.479c-3.959,0-6.941-2.852-6.941-6.943
		C46.506,123.335,49.462,120.722,53.051,120.722 M56.773,126.37c-0.106-2.799-1.795-4.171-3.775-4.171
		c-2.217,0-4.143,1.479-4.565,4.171H56.773z"/>
	<path fill="#FFFFFF" d="M61.868,121.698c0-0.423,0.237-0.659,0.66-0.659h0.475c0.396,0,0.634,0.236,0.634,0.659v1.795
		c0,0.581-0.105,1.056-0.105,1.056h0.052c0.635-1.927,2.165-3.589,4.276-3.589c0.475,0,0.686,0.211,0.686,0.633v0.474
		c0,0.424-0.289,0.659-0.738,0.659c-2.797,0-4.145,3.196-4.145,5.966v4.963c0,0.422-0.211,0.658-0.633,0.658h-0.501
		c-0.423,0-0.66-0.236-0.66-0.658V121.698z"/>
	<path fill="#FFFFFF" d="M77.758,126.186h0.765v-0.423c0-2.562-1.398-3.432-3.272-3.432c-1.479,0-2.613,0.555-3.22,0.925
		c-0.369,0.183-0.66,0.132-0.897-0.212l-0.158-0.266c-0.211-0.341-0.159-0.685,0.185-0.896c0.686-0.422,2.164-1.161,4.223-1.161
		c3.167,0,4.935,1.767,4.935,5.093v7.838c0,0.422-0.211,0.661-0.632,0.661h-0.423c-0.423,0-0.66-0.21-0.66-0.661v-1.054
		c0-0.609,0.079-1.003,0.079-1.003h-0.053c0.027,0-1.188,3.035-4.486,3.035c-2.244,0-4.486-1.319-4.486-3.88
		C69.655,126.423,75.197,126.186,77.758,126.186 M74.458,133.127c2.561,0,4.064-2.642,4.064-4.963v-0.635h-0.738
		c-2.085,0-6.282,0.079-6.282,3.063C71.502,131.832,72.479,133.127,74.458,133.127"/>
	<path fill="#FFFFFF" d="M84.699,122.648h-1.107c-0.422,0-0.635-0.212-0.635-0.635v-0.212c0-0.422,0.213-0.658,0.635-0.658h1.134
		v-3.113c0-0.423,0.238-0.66,0.66-0.66h0.476c0.422,0,0.633,0.237,0.633,0.66v3.113h2.692c0.422,0,0.658,0.236,0.658,0.658v0.212
		c0,0.423-0.236,0.635-0.658,0.635h-2.692v6.649c0,3.063,1.873,3.433,2.903,3.485c0.527,0.053,0.713,0.211,0.713,0.66v0.343
		c0,0.423-0.211,0.633-0.74,0.633c-2.902,0-4.671-1.768-4.671-4.882V122.648z"/>
	<path fill="#FFFFFF" d="M92.697,117.37v-0.95c0-0.422,0.211-0.66,0.633-0.66h0.66c0.423,0,0.634,0.238,0.634,0.66v0.95
		c0,0.422-0.211,0.633-0.634,0.633h-0.66C92.908,118.003,92.697,117.792,92.697,117.37 M92.75,121.698
		c0-0.423,0.237-0.659,0.659-0.659h0.502c0.422,0,0.633,0.236,0.633,0.659v11.956c0,0.422-0.211,0.658-0.633,0.658h-0.502
		c-0.422,0-0.659-0.236-0.659-0.658V121.698z"/>
	<path fill="#FFFFFF" d="M104.839,120.721c3.879,0,7.02,2.955,7.02,6.89c0,4.012-3.141,7.019-6.994,7.019
		c-3.88,0-7.021-3.007-7.021-7.019C97.843,123.676,100.984,120.721,104.839,120.721 M104.864,133.021
		c2.825,0,5.146-2.323,5.146-5.411c0-3.009-2.321-5.278-5.146-5.278c-2.852,0-5.173,2.27-5.173,5.278
		C99.691,130.698,102.013,133.021,104.864,133.021"/>
	<path fill="#FFFFFF" d="M115.133,121.698c0-0.423,0.237-0.659,0.66-0.659h0.476c0.395,0,0.633,0.236,0.633,0.659v1.529
		c0,0.529-0.105,0.95-0.105,0.95h0.052c0.501-1.213,2.243-3.458,5.358-3.458c3.3,0,4.461,1.874,4.461,5.148v7.786
		c0,0.422-0.238,0.658-0.66,0.658h-0.501c-0.423,0-0.635-0.236-0.635-0.658v-7.311c0-2.085-0.343-3.933-2.903-3.933
		c-2.824,0-5.041,2.321-5.041,5.409v5.834c0,0.422-0.211,0.658-0.633,0.658h-0.501c-0.423,0-0.66-0.236-0.66-0.658V121.698z"/>
	<path fill="#FFFFFF" d="M139.388,115.258c5.676,0,9.687,4.195,9.687,9.555c0,5.517-4.011,9.816-9.687,9.816
		c-5.674,0-9.686-4.3-9.686-9.816C129.702,119.453,133.714,115.258,139.388,115.258 M139.388,131.517
		c3.59,0,6.177-2.903,6.177-6.704c0-3.644-2.587-6.441-6.177-6.441c-3.588,0-6.176,2.798-6.176,6.441
		C133.212,128.613,135.8,131.517,139.388,131.517"/>
	<path fill="#FFFFFF" d="M151.689,121.962c0-0.713,0.37-1.107,1.082-1.107h1.028c0.714,0,1.082,0.395,1.082,1.107v0.816
		c0,0.29-0.051,0.609-0.051,0.609h0.051c0.582-1.135,2.06-2.852,4.777-2.852c2.983,0,4.698,1.558,4.698,5.119v7.55
		c0,0.737-0.369,1.109-1.108,1.109h-1.135c-0.713,0-1.107-0.372-1.107-1.109v-6.861c0-1.638-0.424-2.745-2.112-2.745
		c-2.375,0-3.88,1.978-3.88,4.407v5.199c0,0.737-0.369,1.109-1.082,1.109h-1.161c-0.712,0-1.082-0.372-1.082-1.109V121.962z"/>
	<path fill="#FFFFFF" d="M49.113,44.066c0.082-0.771,0.308-1.586-0.268-2.224c-0.467-0.515-1.217-0.641-1.821-0.292
		c-1.288,0.747-0.979,3.481-1.145,4.788c-0.505,3.987-1.491,7.906-2.943,11.651c-0.706,1.819-1.526,3.593-2.442,5.313
		c-0.387,0.729-1.057,1.533-0.839,2.407c0.161,0.645,0.771,1.13,1.438,1.13c1.086,0,1.502-1.12,1.933-1.922
		c0.492-0.919,0.961-1.851,1.4-2.797c0.931-2.011,1.731-4.083,2.398-6.199C48.049,52.045,48.687,48.099,49.113,44.066"/>
	<path fill="#FFFFFF" d="M129.078,38.781c-0.278-1.514-0.592-3.063-1.06-4.532c-0.266-0.836-0.67-1.636-0.965-2.488
		c-1.935-5.594-4.932-10.804-8.754-15.314c-0.73-0.863-1.814-2.657-3.183-2.092c-1.06,0.434-1.125,1.655-0.513,2.467
		c0.845,1.12,1.885,2.109,2.746,3.226c0.218,0.284,0.705,0.745,0.761,1.075c0.03,0.19-0.283,0.683-0.315,0.945
		c-0.699-0.047-1.789-0.076-2.127,0.693c-0.373,0.849,0.747,0.975,1.282,1.444c-1.694,0.791-1.44,2.733-0.174,3.791
		c1.058,0.885,3.481,0.87,4.364-0.26c0.832,0.756,0.789,1.718,1.031,2.725c-0.564,0.123-1.091,0.45-1.384,0.957
		c-0.128,0.224-0.146,0.663-0.362,0.809c-0.308,0.201-1.326-0.169-1.711-0.219c-0.615-0.077-1.151-0.045-1.742,0.161
		c-2.094-3.515-4.066-7.086-6.873-10.176c-6.397-7.044-15.434-11.457-24.947-12.014c-0.594-0.035-1.189-0.056-1.784-0.063
		c-0.47-0.005-1.219,0.165-1.65,0.022c-0.736-0.248-1.399-1.582-2.036-2.062c-0.862-0.646-1.728-0.88-2.769-1.081
		c-0.893-0.173-1.741-0.485-2.632-0.149c-1.485,0.559-2.407,1.955-3.773,2.423c-1.779-0.02-3.855-0.715-4.16-2.669
		c7.438-3.055,15.427-4.065,23.455-2.833c-0.683,1.317-0.433,2.698,0.635,3.734c1.281,1.244,2.73,1.213,4.381,1
		c1.432-0.183,2.833-0.092,4.266-0.051c0.979,0.029,1.821-0.109,2.187-1.148c1.155,0.549,2.294,1.132,3.399,1.775
		c0.582,0.343,1.156,0.695,1.723,1.061c0.521,0.337,1.134,0.919,1.734,1.09c1.188,0.337,2.286-0.834,1.823-2.013
		c-0.429-1.093-2.272-1.856-3.222-2.432c-5.038-3.04-10.666-5.106-16.479-6.032C70.996-2.511,50.873,7.378,41.864,24.77
		c-2.19,4.227-3.825,8.87-4.738,13.555c-0.254,1.296-0.454,2.602-0.602,3.915c-0.104,0.933-0.375,2.102,0.589,2.692
		c2.505,1.53,2.466-3.264,2.656-4.456c1.468-9.203,5.836-17.901,12.328-24.566c-0.08,2.785-1.338,5.006-2.184,7.58
		c-1.057,3.217-1.776,7.362-0.745,10.675c0.405,1.305,1.795,1.804,2.455,2.928c0.523,0.892,0.218,1.924,0.188,2.901
		c-0.066,2.15-0.219,4.637,0.386,6.725c0.369,1.278,1.087,2.492,1.764,3.629c0.238,0.398,0.839,0.996,0.932,1.444
		c0.089,0.433-0.197,1.144-0.296,1.59c-0.806,3.645-1.947,7.212-3.423,10.639c-1.37,3.179-3.035,6.234-4.942,9.124
		c-0.672,1.016-2.188,2.978-0.248,3.705c1.633,0.61,2.653-1.887,3.32-2.938c1.896-2.989,3.549-6.134,4.906-9.402
		c0.745-1.799,1.406-3.633,1.979-5.49c0.517-1.675,0.775-3.496,1.385-5.129c2.004,1.454,4.533,0.939,6.731,1.853
		c-0.791,4.169-2.168,8.206-3.843,12.1c-1.679,3.9-3.729,7.651-6.096,11.176c-0.78,1.163-3.371,3.501-1.893,4.93
		c1.641,1.585,3.219-1.557,3.956-2.631c4.671-6.807,8.08-14.366,10.24-22.323c0.968,1.825,2.646,1.537,4.443,1.67
		c-0.001,1.506-1.511,2.272-1.989,3.609c-0.384,1.077-0.462,2.221-0.962,3.265c-0.389,0.811-0.967,1.537-1.181,2.423
		c-0.21,0.874,0.007,1.714,0.351,2.525c0.16,0.378,0.35,0.741,0.558,1.094c0.165,0.28,0.663,0.773,0.729,1.091
		c0.171,0.813-1.413,2.833-1.845,3.582c-1.764,3.059-3.566,6.073-5.637,8.937c-0.414,0.569-0.854,1.094-0.675,1.853
		c0.153,0.665,0.751,1.163,1.438,1.164c0.946,0.004,1.414-0.906,1.894-1.574c0.608-0.847,1.199-1.71,1.774-2.581
		c1.875-2.846,3.495-5.827,5.159-8.798c0.814,0.967,1.596,1.959,2.405,2.931c0.88,1.057,1.93,2.092,2.661,3.259
		c0.579,0.927-0.037,1.38-0.552,2.281c-0.649,1.144-1.332,2.268-2.033,3.38c-0.625,0.99-2.157,2.519-2.099,3.731
		c0.048,1.009,0.86,1.311,1.684,1.537c1.892,0.525,3.843,1.07,5.801,1.271c1.728-1.249,2.388-2.779,4.692-2.977
		c0.786-0.064,1.524-0.06,2.071-0.704c0.467-0.55,0.519-1.288,0.917-1.874c0.984-1.438,3.257-0.662,4.063-2.227
		c0.371-0.72,0.321-1.554,0.784-2.241c0.437-0.646,1.136-1.089,1.845-1.376c1.346-0.544,2.885-0.629,3.842-1.861
		c1.117-1.437,1.128-3.471,2.063-5.023c0.753-1.248,1.13-2.501,0.298-3.861c-0.775-1.261-2.137-1.747-3.541-1.76
		c1.271-4.145,2.33-8.341,3.103-12.609c1.241-6.875,2.653-14.243-1.168-20.578c-3.776-6.263-10.966-9.281-18.092-7.96
		c0.642-0.833,1.603-2.146,1.419-3.271c-0.096-0.586-0.521-0.439-0.716-0.746c-0.145-0.227-0.241-1.179-0.001-1.408
		c0.299-0.285,1.507-0.268,1.866-0.3c0.811-0.076,1.629-0.092,2.441-0.053c1.255,0.059,2.407,0.306,3.558,0.804
		c-0.611,0.14-1.029,0.406-1.578,0.711c0.553,1.397,3.432,2.601,4.758,1.65c0.99-0.71-0.246-1.568-0.707-2.183
		c-0.401-0.531-0.613-1.166-1.125-1.605l0.201-0.357c8.871,2.549,15.596,10.212,17.278,19.246c0.781,4.187,0.269,8.398-0.308,12.577
		c-0.592,4.288-1.428,8.543-2.504,12.735c-1.045,4.078-2.319,8.101-3.816,12.036c-0.746,1.96-1.549,3.896-2.402,5.812
		c-0.431,0.966-0.875,1.926-1.332,2.882c-0.379,0.786-1.158,1.824-1.127,2.722c0.028,0.784,0.702,1.445,1.487,1.448
		c0.987,0.004,1.353-0.872,1.726-1.627c0.939-1.899,1.825-3.828,2.662-5.774c1.625-3.789,3.041-7.67,4.247-11.611
		c2.419-7.902,4.196-16.23,4.698-24.492l0.396-0.073c0.623,1.406,4.636,5.235,5.828,5.578c-0.848,6.798-2.227,13.52-4.18,20.085
		c-0.496,1.668-1.029,3.328-1.596,4.974c-0.286,0.834-0.582,1.663-0.887,2.489c-0.186,0.503-0.455,1.029-0.373,1.579
		c0.203,1.385,1.982,1.681,2.727,0.572c0.717-1.07,1.007-2.648,1.416-3.843c2.043-5.977,3.654-12.108,4.766-18.323
		c0.274-1.531,0.525-3.063,0.744-4.6c0.102-0.715,0.198-1.432,0.287-2.146c0.068-0.541-0.035-1.724,0.256-2.18
		c0.398-0.623,0.852-0.175,1.338,0.215c0.656,0.525,3.121,2.913,3.75,3.995c0.133,0.225,0.768,0.639,0.809,0.813
		c0.096,0.417-0.368,1.357-0.491,1.77c-0.847,2.814-1.972,5.546-3.349,8.143c-0.549,1.037-2.102,2.76-1.565,3.994
		c0.435,0.995,1.701,1.175,2.454,0.428c0.869-0.859,1.427-2.377,1.986-3.462c0.658-1.271,1.259-2.574,1.8-3.899
		c2.276-5.582,3.483-11.594,3.565-17.619C129.923,45.092,129.656,41.909,129.078,38.781 M66.41,43.232
		c-0.553,2.081-0.563,4.244-0.958,6.352c-1.128-0.081-2.655-0.464-3.442,0.541c-0.38,0.489-0.412,0.866-1.102,1.019
		c-0.779,0.171-5.129-4.328-4.105-6.324c1.272-2.485,3.872-3.186,6.199-4.323c1.042-0.508,2.14-0.885,3.175-0.107
		C67.313,41.243,66.711,42.107,66.41,43.232 M83.864,65.158c-1.202-0.87-2.122-2.064-3.34-2.909
		c-1.153-0.796-2.473-1.151-3.851-1.309c0.846-3.357,1.504-6.753,1.942-10.188c0.21-1.64,0.055-3.685,0.933-5.143
		c0.714-1.19,2.041-1.965,3.433-1.965c1.727,0,3.263,1.154,3.794,2.788c0.583,1.796-0.031,4.105-0.274,5.918
		C85.923,56.678,85.03,60.951,83.864,65.158 M90.656,35.579c2.719,1.792,4.767,4.527,5.772,7.62
		c0.894,2.753,0.723,5.465,0.412,8.286c-0.396,3.594-0.988,7.169-1.762,10.703c-0.398,1.821-0.845,3.634-1.343,5.432
		c-0.349,1.259-1.325,3.089-0.947,4.386c-0.764,0.114-2.071,0.195-2.657-0.451c-0.5-0.553-0.172-1.687-0.357-2.373
		c-0.483-1.779-1.418-2.442-3.116-2.938c1.5-5.323,2.552-10.763,3.126-16.263c0.26-2.465,0.207-4.801-1.43-6.817
		c-1.311-1.611-3.313-2.561-5.389-2.561c-1.815,0-3.585,0.735-4.87,2.019c-1.565,1.56-1.975,3.466-2.187,5.587
		c-0.43,4.289-1.24,8.51-2.301,12.686c-0.287-1.098-0.491-1.533-1.731-1.575c-1.466-0.049-2.679-0.309-3.444-1.683
		c-0.38-0.683-0.922-1.911-0.947-2.698c-0.023-0.751,0.305-1.646,0.444-2.391c0.405-2.177,0.714-4.277,0.974-6.47
		c0.36-3.031,1.622-5.91,3.682-8.169C77.186,32.855,84.929,31.808,90.656,35.579 M114.116,33.684
		c-0.031,0.146-0.502,0.582-0.572,0.675c-0.281,0.369-0.539,0.751-0.761,1.158c-0.333,0.605-1.526,3.27-1.726,4.114
		c-0.27,1.152-0.512,2.333-0.752,3.495l-0.407-0.007c-1.207-7.358-5.384-14.133-11.517-18.401
		c-3.063-2.133-6.543-3.631-10.207-4.351c-0.677-0.133-1.358-0.243-2.041-0.326c-0.354-0.042-0.939,0.02-1.221-0.188
		c-0.824-0.608-0.984-2.36-2.264-2.36c-0.865,0-1.613,0.1-2.452-0.201c-0.693-0.249-1.148-0.688-1.725-1.123
		c-1.146-0.86-2.725-0.86-4.096-0.65c-1.02,0.155-2.438,0.746-2.136,2.062c0.275,1.207,1.878,1.851,2.352,3.047
		c-0.738,0.314-1.969,0.06-2.538,0.623c-0.326,0.325-0.325,0.924-0.822,1.089c-0.562,0.189-0.929-0.292-1.309-0.603
		c-1.682-1.382-4.307-0.773-5.668-2.818c-1.53-2.295,0.086-4.047,2.045-5.421c0.775-0.543,1.64-0.845,2.557-1.058
		c1.046-0.244,2.379-0.738,3.393-0.185c0.539-0.558,1.121-1.918,1.855-2.204c0.469-0.183,1.887-0.573,2.341-0.249
		c0.413,0.296,0.303,1.398,0.017,1.804c-0.502,0.707-1.585,0.706-2.358,0.724c-0.139,1.106,1.236,1.111,2.094,1.255
		c0.945,0.161,1.824,0.332,2.701,0.735c0.875,0.398,1.737,0.931,2.731,0.933c0.253,0.001,1.017-0.006,1.152-0.206
		c0.111-0.161,2.008-1.89,3.05-1.967c1.059-0.077,2.313,0.263,3.35,0.458c1.119,0.21,2.226,0.479,3.316,0.802
		c7.858,2.33,14.639,7.567,19.038,14.466c0.787,1.232,1.628,2.511,2.245,3.823C113.991,33.078,114.202,33.292,114.116,33.684"/>
</g>
</svg>
