<svg xmlns="http://www.w3.org/2000/svg" viewBox="0 0 90 90"><defs><style>.cls-1{fill:#0086fa;}.cls-2{fill:none;stroke:#fff;stroke-linecap:round;stroke-linejoin:round;stroke-width:2px;}</style></defs><title>icon-awards</title><g id="Layer_2" data-name="Layer 2"><g id="Artwork"><circle class="cls-1" cx="45" cy="45" r="45" transform="translate(-0.39 0.39) rotate(-0.5)"/><g id="Outline_Icons" data-name="Outline Icons"><g id="New_icons" data-name="New icons"><path class="cls-2" d="M27.15,55.92c-.58,4.13-8.85,6.2-8.85,6.2l5.55,3.33L21.63,69.9s10-1.11,10-5.55a2.17,2.17,0,0,0-2.22-2.22"/><path class="cls-2" d="M60.52,55.92c.58,4.14,8.85,6.2,8.85,6.2l-5.55,3.33L66,69.9s-10-1.11-10-5.55a2.17,2.17,0,0,1,2.22-2.22"/><path class="cls-2" d="M43.84,55.46c11.1,0,14.43,6.66,14.43,6.66l4.44-12.21a34.86,34.86,0,0,0-37.75,0L29.4,62.12S32.73,55.46,43.84,55.46Z"/><polygon class="cls-2" points="43.84 18.82 47.17 25.48 54.94 25.48 48.28 29.92 51.61 38.81 43.84 33.26 36.06 38.81 39.39 29.92 32.73 25.48 40.51 25.48 43.84 18.82"/><polygon class="cls-2" points="26.07 26.59 28.66 32.14 33.84 32.14 29.53 36.46 31.25 42.51 26.07 39.27 20.89 42.51 22.61 36.46 18.3 32.14 23.48 32.14 26.07 26.59"/><polygon class="cls-2" points="61.6 26.59 64.19 32.14 69.37 32.14 65.06 36.46 66.78 42.51 61.6 39.27 56.42 42.51 58.15 36.46 53.83 32.14 59.01 32.14 61.6 26.59"/></g></g></g></g></svg>