<svg xmlns="http://www.w3.org/2000/svg" viewBox="0 0 90 90"><defs><style>.cls-1{fill:#93d400;}.cls-2{fill:none;stroke:#fff;stroke-linejoin:round;stroke-width:2px;}</style></defs><title>icon-abc</title><g id="Layer_2" data-name="Layer 2"><g id="Artwork"><circle class="cls-1" cx="45" cy="45" r="45" transform="matrix(0.01, -1, 1, 0.01, -0.39, 89.61)"/><rect class="cls-2" x="24.15" y="46.85" width="18.28" height="18.28" rx="3.66" ry="3.66"/><rect class="cls-2" x="47.91" y="46.85" width="18.28" height="18.28" rx="3.66" ry="3.66"/><rect class="cls-2" x="35.11" y="24.92" width="18.28" height="18.28" rx="3.66" ry="3.66"/><path class="cls-2" d="M29.63,50.51H34.2a2.74,2.74,0,0,1,0,5.48H29.63Z"/><path class="cls-2" d="M29.63,56H34.2a2.74,2.74,0,0,1,0,5.48H29.63Z"/><polyline class="cls-2" points="39.68 39.51 44.39 28.6 48.82 39.51"/><line class="cls-2" x1="41.26" y1="35.89" x2="47.34" y2="35.89"/><path class="cls-2" d="M61.72,59.87A5.48,5.48,0,1,1,61.58,52"/></g></g></svg>