<svg xmlns="http://www.w3.org/2000/svg" viewBox="0 0 90 90"><defs><style>.cls-1{fill:#93d400;}.cls-2,.cls-3{fill:none;stroke:#fff;stroke-linejoin:round;stroke-width:2px;}.cls-3{stroke-linecap:round;}</style></defs><title>icon-campaigns</title><g id="Layer_2" data-name="Layer 2"><g id="Artwork"><circle class="cls-1" cx="45" cy="45" r="45" transform="matrix(0.01, -1, 1, 0.01, -0.39, 89.61)"/><circle class="cls-2" cx="45.3" cy="31.05" r="4.32"/><circle class="cls-2" cx="57.38" cy="32.77" r="2.59"/><circle class="cls-2" cx="33.21" cy="32.77" r="2.59"/><path class="cls-3" d="M53.93,56.42c6.64.56,11.22,1.74,11.22,3.11,0,1.91-8.89,3.45-19.85,3.45s-19.85-1.55-19.85-3.45c0-1.36,4.55-2.54,11.15-3.1"/><path class="cls-2" d="M49.61,54.35H41V43.13a4.32,4.32,0,0,1,8.63,0Z"/><path class="cls-2" d="M60,50.9H54.79V41.41a2.59,2.59,0,0,1,5.18,0Z"/><path class="cls-2" d="M35.8,50.9H30.62V41.41a2.59,2.59,0,0,1,5.18,0Z"/></g></g></svg>