<svg xmlns="http://www.w3.org/2000/svg" viewBox="0 0 90 90"><defs><style>.cls-1{fill:#901d89;}.cls-2{fill:none;stroke:#fff;stroke-linecap:round;stroke-linejoin:round;stroke-width:2px;}</style></defs><title>icon-opportunities</title><g id="Layer_2" data-name="Layer 2"><g id="Artwork"><circle class="cls-1" cx="45" cy="45" r="45" transform="translate(-0.39 0.39) rotate(-0.5)"/><g id="Outline_Icons" data-name="Outline Icons"><g id="Outline_Icons-2" data-name="Outline Icons"><polygon class="cls-2" points="59.72 47.65 63.14 55.67 71.16 55.67 64.28 61.4 67.72 70.57 59.7 64.85 51.68 70.57 55.12 61.4 48.24 55.67 56.26 55.67 59.72 47.65"/><polyline class="cls-2" points="49.27 49.44 40.23 46.2 40.23 41.52"/><path class="cls-2" d="M31.07,41.52V46.2l-9,3.24a5.41,5.41,0,0,0-3.57,5.12V58H42.53"/><path class="cls-2" d="M44.7,32.15c0,6-4.05,10.87-9,10.87s-9-4.87-9-10.87,4-10.85,9-10.85S44.7,26.16,44.7,32.15Z"/><path class="cls-2" d="M44.63,31.18c-.3,0-.55,0-.86.08-3.08.59-5.06-.52-6.76-3.5-1,2-4.2,3.5-6.81,3.5a7.22,7.22,0,0,1-3.5-.85"/><path class="cls-2" d="M50.55,21.3c5,0,9,4.86,9,10.85S55.54,43,50.55,43"/><path class="cls-2" d="M59.52,31.18c-.3,0-.55,0-.86.08-3.08.59-5.06-.52-6.76-3.5"/><line class="cls-2" x1="55.13" y1="45.36" x2="55.13" y2="41.52"/></g></g></g></g></svg>