<svg xmlns="http://www.w3.org/2000/svg" viewBox="0 0 90 90"><defs><style>.cls-1{fill:#93d400;}.cls-2,.cls-3{fill:none;stroke:#fff;stroke-linejoin:round;stroke-width:2px;}.cls-3{stroke-linecap:round;}</style></defs><title>icon-school</title><g id="Layer_2" data-name="Layer 2"><g id="Artwork"><circle class="cls-1" cx="45" cy="45" r="45" transform="matrix(0.01, -1, 1, 0.01, -0.39, 89.61)"/><path class="cls-2" d="M44.39,48.78c1.8,0,.6,1.2,4.19,1.2s7.18-7.18,7.18-12-3-8.38-6.59-8.38-3.59,1.2-4.79,1.2-2.35-1.24-5.1-1.24C39.29,38.76,33,38,33,38c0,4.79,3.59,12,7.18,12S42.6,48.78,44.39,48.78Z"/><path class="cls-3" d="M44.39,30.82V27.89A2.4,2.4,0,0,0,42,25.5H39.61"/><path class="cls-2" d="M47.17,26.81a5.39,5.39,0,0,0,5.39-5.39A5.39,5.39,0,0,0,47.17,26.81Z"/><path class="cls-3" d="M20.94,66.3h10.2a4.08,4.08,0,0,0,4.08-4.08V58.14a4.08,4.08,0,0,0-4.08-4.08H20.94"/><path class="cls-2" d="M31.13,66.3H64.79c2.25,0,3.06-1.83,3.06-4.08V58.14c0-2.25-.81-4.08-3.06-4.08H31.13"/><line class="cls-2" x1="59.69" y1="54.06" x2="59.69" y2="66.3"/><line class="cls-2" x1="55.61" y1="54.06" x2="55.61" y2="66.3"/><line class="cls-2" x1="47.45" y1="54.06" x2="47.45" y2="66.3"/><line class="cls-2" x1="43.37" y1="54.06" x2="43.37" y2="66.3"/><line class="cls-3" x1="31.13" y1="62.22" x2="22.98" y2="62.22"/><line class="cls-3" x1="31.13" y1="58.14" x2="22.98" y2="58.14"/></g></g></svg>