<svg xmlns="http://www.w3.org/2000/svg" viewBox="0 0 90 90"><defs><style>.cls-1{fill:#93d400;}.cls-2{fill:none;stroke:#fff;stroke-linecap:round;stroke-linejoin:round;stroke-width:2px;}</style></defs><title>icon-lightbulb</title><g id="Layer_2" data-name="Layer 2"><g id="Artwork"><circle class="cls-1" cx="45" cy="45" r="45" transform="matrix(0.01, -1, 1, 0.01, -0.39, 89.61)"/><circle class="cls-2" cx="44.92" cy="40.73" r="14.6"/><polyline class="cls-2" points="38.66 54.28 38.66 59.5 51.17 59.5 51.17 54.28"/><rect class="cls-2" x="40.75" y="59.5" width="8.34" height="4.17"/><line class="cls-2" x1="44.92" y1="63.67" x2="44.92" y2="67.84"/><line class="cls-2" x1="44.92" y1="19.88" x2="44.92" y2="21.96"/><line class="cls-2" x1="59.66" y1="25.99" x2="58.19" y2="27.46"/><line class="cls-2" x1="65.77" y1="40.73" x2="63.68" y2="40.73"/><line class="cls-2" x1="59.66" y1="55.47" x2="58.19" y2="54"/><line class="cls-2" x1="30.17" y1="25.99" x2="31.65" y2="27.46"/><line class="cls-2" x1="24.07" y1="40.73" x2="26.15" y2="40.73"/><line class="cls-2" x1="30.17" y1="55.47" x2="31.65" y2="54"/><path class="cls-2" d="M46,54.28l2.66-11.52a2.62,2.62,0,0,1,2.55-2,2.09,2.09,0,0,1,0,4.17H38.66a2.09,2.09,0,0,1,0-4.17,2.62,2.62,0,0,1,2.55,2l2.66,11.52"/></g></g></svg>