<svg xmlns="http://www.w3.org/2000/svg" viewBox="0 0 90 90"><defs><style>.cls-1{fill:#e95924;}.cls-2{fill:none;stroke:#fff;stroke-linejoin:round;stroke-width:2px;}</style></defs><title>icon-volunteering</title><g id="Layer_2" data-name="Layer 2"><g id="Artwork"><circle class="cls-1" cx="45" cy="45" r="45" transform="translate(-0.39 89.61) rotate(-89.5)"/><g id="Outline_Icons" data-name="Outline Icons"><polygon class="cls-2" points="45 16.76 47.52 23.07 53.83 23.07 48.78 27.33 50.67 34.19 45 29.74 39.33 34.14 41.22 27.34 36.17 23.07 42.48 23.07 45 16.76"/><polygon class="cls-2" points="24.83 31.89 27.35 38.2 33.65 38.2 28.61 42.46 30.5 49.32 24.83 44.87 19.15 49.27 21.04 42.47 16 38.2 22.3 38.2 24.83 31.89"/><polygon class="cls-2" points="65.17 31.89 67.7 38.2 74 38.2 68.96 42.46 70.85 49.32 65.17 44.87 59.5 49.27 61.39 42.47 56.35 38.2 62.65 38.2 65.17 31.89"/><polygon class="cls-2" points="57.61 54.59 60.13 60.89 66.44 60.89 61.39 65.16 63.28 72.02 57.61 67.57 51.94 71.96 53.83 65.17 48.78 60.89 55.09 60.89 57.61 54.59"/><polygon class="cls-2" points="32.39 54.59 34.91 60.89 41.22 60.89 36.17 65.16 38.06 72.02 32.39 67.57 26.72 71.96 28.61 65.17 23.57 60.89 29.87 60.89 32.39 54.59"/></g></g></g></svg>