<?xml version="1.0" encoding="utf-8"?>
<!-- Generator: Adobe Illustrator 15.1.0, SVG Export Plug-In  -->
<!DOCTYPE svg PUBLIC "-//W3C//DTD SVG 1.1//EN" "http://www.w3.org/Graphics/SVG/1.1/DTD/svg11.dtd" [
	<!ENTITY ns_flows "http://ns.adobe.com/Flows/1.0/">
]>
<svg version="1.1"
	 xmlns="http://www.w3.org/2000/svg" xmlns:xlink="http://www.w3.org/1999/xlink" xmlns:a="http://ns.adobe.com/AdobeSVGViewerExtensions/3.0/"
	 x="0px" y="0px" width="358px" height="114px" viewBox="-0.256 -0.379 358 114" enable-background="new -0.256 -0.379 358 114"
	 xml:space="preserve">
<defs>
</defs>
<path fill="#FFFFFF" d="M117.464,83.135c0.867,0.395,2.405,1.025,4.614,1.025c3.667,0,6.82-1.814,6.82-6.23v-2.05
	c0-0.75,0.119-1.42,0.119-1.42h-0.079c-1.183,2.248-3.193,3.707-6.309,3.707c-5.323,0-8.832-4.181-8.832-10.291
	c0-5.836,3.233-9.897,8.754-9.897c5.125,0,6.466,3.627,6.466,3.627h0.079c0,0-0.079-0.275-0.079-0.67v-1.617
	c0-0.512,0.316-0.866,0.946-0.866h0.631c0.632,0,0.986,0.354,0.986,0.985v18.375c0,6.309-4.692,8.752-9.423,8.752
	c-2.052,0-4.062-0.434-5.718-1.182c-0.592-0.277-0.749-0.671-0.473-1.262l0.236-0.553C116.479,83.057,116.834,82.899,117.464,83.135
	 M128.938,68.073c0-5.875-2.838-7.688-6.151-7.688c-4.022,0-6.23,2.839-6.23,7.413c0,4.967,2.563,7.965,6.466,7.965
	C126.179,75.762,128.938,73.831,128.938,68.073"/>
<path fill="#FFFFFF" d="M146.328,57.979c5.283,0,8.28,3.825,8.28,9.463c0,0.553-0.434,0.986-1.025,0.986H139.31
	c0.118,5.047,3.588,7.926,7.688,7.926c2.484,0,4.298-1.105,5.205-1.814c0.552-0.354,0.986-0.276,1.301,0.236l0.316,0.473
	c0.276,0.474,0.197,0.947-0.276,1.302c-1.065,0.789-3.43,2.208-6.625,2.208c-5.914,0-10.369-4.258-10.369-10.369
	C136.55,61.883,140.966,57.979,146.328,57.979 M151.888,66.417c-0.158-4.18-2.682-6.229-5.639-6.229
	c-3.312,0-6.191,2.208-6.821,6.229H151.888z"/>
<path fill="#FFFFFF" d="M159.5,59.438c0-0.631,0.355-0.985,0.985-0.985h0.71c0.591,0,0.946,0.354,0.946,0.985v2.287
	c0,0.787-0.157,1.42-0.157,1.42h0.078c0.749-1.814,3.352-5.166,8.004-5.166c4.93,0,6.664,2.8,6.664,7.688v11.632
	c0,0.631-0.355,0.986-0.985,0.986h-0.749c-0.632,0-0.947-0.355-0.947-0.986V66.377c0-3.115-0.512-5.875-4.338-5.875
	c-4.218,0-7.53,3.469-7.53,8.084v8.713c0,0.631-0.316,0.986-0.947,0.986h-0.749c-0.63,0-0.985-0.355-0.985-0.986V59.438z"/>
<path fill="#FFFFFF" d="M191.202,57.979c5.283,0,8.28,3.825,8.28,9.463c0,0.553-0.434,0.986-1.025,0.986h-14.273
	c0.119,5.047,3.589,7.926,7.688,7.926c2.484,0,4.298-1.105,5.205-1.814c0.552-0.354,0.986-0.276,1.302,0.236l0.314,0.473
	c0.277,0.474,0.197,0.947-0.276,1.302c-1.063,0.789-3.429,2.208-6.624,2.208c-5.914,0-10.369-4.258-10.369-10.369
	C181.424,61.883,185.84,57.979,191.202,57.979 M196.762,66.417c-0.158-4.18-2.682-6.229-5.639-6.229
	c-3.313,0-6.191,2.208-6.82,6.229H196.762z"/>
<path fill="#FFFFFF" d="M204.374,59.438c0-0.631,0.354-0.985,0.985-0.985h0.709c0.592,0,0.947,0.354,0.947,0.985v2.682
	c0,0.867-0.158,1.577-0.158,1.577h0.078c0.947-2.879,3.234-5.362,6.389-5.362c0.71,0,1.025,0.315,1.025,0.946v0.709
	c0,0.632-0.434,0.985-1.104,0.985c-4.179,0-6.19,4.772-6.19,8.912v7.412c0,0.631-0.315,0.986-0.945,0.986h-0.75
	c-0.631,0-0.985-0.355-0.985-0.986V59.438z"/>
<path fill="#FFFFFF" d="M228.111,66.141h1.145V65.51c0-3.824-2.092-5.127-4.891-5.127c-2.208,0-3.903,0.828-4.811,1.382
	c-0.552,0.274-0.985,0.196-1.34-0.317l-0.236-0.393c-0.316-0.514-0.237-1.025,0.275-1.342c1.025-0.631,3.233-1.733,6.309-1.733
	c4.73,0,7.373,2.642,7.373,7.608v11.711c0,0.631-0.315,0.986-0.945,0.986h-0.632c-0.632,0-0.986-0.315-0.986-0.986v-1.577
	c0-0.906,0.119-1.498,0.119-1.498h-0.079c0.04,0-1.773,4.534-6.703,4.534c-3.351,0-6.703-1.973-6.703-5.797
	C216.006,66.495,224.286,66.141,228.111,66.141 M223.182,76.51c3.826,0,6.074-3.941,6.074-7.412v-0.946h-1.104
	c-3.116,0-9.386,0.119-9.386,4.574C218.766,74.579,220.225,76.51,223.182,76.51"/>
<path fill="#FFFFFF" d="M238.482,60.858h-1.655c-0.632,0-0.946-0.315-0.946-0.946v-0.315c0-0.631,0.314-0.986,0.946-0.986h1.694
	v-4.653c0-0.631,0.355-0.987,0.986-0.987h0.71c0.632,0,0.946,0.356,0.946,0.987v4.653h4.021c0.631,0,0.985,0.355,0.985,0.986v0.315
	c0,0.631-0.354,0.946-0.985,0.946h-4.021v9.937c0,4.573,2.799,5.125,4.337,5.204c0.789,0.079,1.063,0.314,1.063,0.985v0.513
	c0,0.631-0.313,0.946-1.104,0.946c-4.337,0-6.979-2.642-6.979-7.294V60.858z"/>
<path fill="#FFFFFF" d="M250.43,52.97v-1.419c0-0.631,0.315-0.985,0.947-0.985h0.985c0.631,0,0.946,0.354,0.946,0.985v1.419
	c0,0.632-0.315,0.947-0.946,0.947h-0.985C250.745,53.917,250.43,53.602,250.43,52.97 M250.51,59.438
	c0-0.631,0.354-0.985,0.985-0.985h0.749c0.631,0,0.946,0.354,0.946,0.985v17.861c0,0.631-0.315,0.986-0.946,0.986h-0.749
	c-0.631,0-0.985-0.355-0.985-0.986V59.438z"/>
<path fill="#FFFFFF" d="M268.568,57.98c5.795,0,10.488,4.415,10.488,10.291c0,5.991-4.693,10.487-10.449,10.487
	c-5.795,0-10.487-4.496-10.487-10.487C258.12,62.395,262.813,57.98,268.568,57.98 M268.607,76.354c4.221,0,7.689-3.471,7.689-8.083
	c0-4.495-3.469-7.888-7.689-7.888c-4.258,0-7.728,3.393-7.728,7.888C260.88,72.883,264.35,76.354,268.607,76.354"/>
<path fill="#FFFFFF" d="M283.948,59.438c0-0.631,0.354-0.985,0.985-0.985h0.709c0.593,0,0.947,0.354,0.947,0.985v2.287
	c0,0.787-0.158,1.42-0.158,1.42h0.078c0.75-1.814,3.353-5.166,8.004-5.166c4.931,0,6.664,2.8,6.664,7.688v11.632
	c0,0.631-0.354,0.986-0.984,0.986h-0.749c-0.632,0-0.947-0.355-0.947-0.986V66.377c0-3.115-0.512-5.875-4.337-5.875
	c-4.219,0-7.531,3.469-7.531,8.084v8.713c0,0.631-0.314,0.986-0.945,0.986h-0.75c-0.631,0-0.985-0.355-0.985-0.986V59.438z"/>
<path fill="#93D400" d="M320.185,49.817c8.478,0,14.472,6.269,14.472,14.273c0,8.241-5.994,14.668-14.472,14.668
	s-14.47-6.427-14.47-14.668C305.715,56.086,311.707,49.817,320.185,49.817 M320.185,74.106c5.363,0,9.228-4.338,9.228-10.016
	c0-5.44-3.864-9.621-9.228-9.621c-5.362,0-9.226,4.181-9.226,9.621C310.959,69.768,314.822,74.106,320.185,74.106"/>
<path fill="#93D400" d="M338.562,59.833c0-1.064,0.554-1.655,1.617-1.655h1.536c1.066,0,1.617,0.591,1.617,1.655v1.223
	c0,0.434-0.078,0.907-0.078,0.907h0.078c0.867-1.696,3.076-4.259,7.138-4.259c4.456,0,7.019,2.326,7.019,7.65v11.275
	c0,1.104-0.553,1.656-1.656,1.656h-1.695c-1.065,0-1.656-0.553-1.656-1.656V66.377c0-2.444-0.631-4.102-3.154-4.102
	c-3.549,0-5.797,2.957-5.797,6.586v7.768c0,1.104-0.551,1.656-1.615,1.656h-1.735c-1.063,0-1.617-0.553-1.617-1.656V59.833z"/>
<path fill="#93D400" d="M11.534,40.001c0.074-0.7,0.279-1.439-0.243-2.017c-0.424-0.468-1.105-0.584-1.653-0.265
	c-1.169,0.678-0.889,3.159-1.04,4.347c-0.458,3.618-1.353,7.175-2.671,10.575c-0.641,1.652-1.385,3.261-2.217,4.826
	c-0.351,0.661-0.96,1.39-0.762,2.183c0.146,0.586,0.701,1.027,1.306,1.027c0.986,0,1.363-1.018,1.754-1.746
	c0.447-0.834,0.873-1.68,1.271-2.539c0.846-1.827,1.573-3.707,2.178-5.626C10.568,47.246,11.147,43.663,11.534,40.001"/>
<path fill="#93D400" d="M84.126,35.204c-0.254-1.374-0.539-2.779-0.962-4.112c-0.241-0.76-0.609-1.488-0.876-2.26
	c-1.756-5.077-4.477-9.807-7.948-13.904c-0.662-0.782-1.646-2.41-2.888-1.899c-0.963,0.396-1.021,1.505-0.466,2.24
	c0.767,1.017,1.711,1.915,2.493,2.931c0.198,0.257,0.641,0.675,0.69,0.975c0.028,0.171-0.256,0.618-0.286,0.857
	c-0.635-0.043-1.624-0.069-1.931,0.63c-0.339,0.769,0.679,0.884,1.165,1.312c-1.539,0.717-1.308,2.479-0.158,3.441
	c0.959,0.803,3.159,0.788,3.962-0.237c0.756,0.686,0.716,1.559,0.935,2.475c-0.512,0.111-0.989,0.406-1.255,0.868
	c-0.117,0.202-0.132,0.602-0.329,0.733c-0.279,0.183-1.204-0.154-1.554-0.198c-0.557-0.071-1.045-0.04-1.582,0.147
	c-1.899-3.192-3.69-6.432-6.239-9.239C61.09,13.57,52.887,9.563,44.251,9.058c-0.54-0.032-1.08-0.05-1.62-0.055
	c-0.426-0.004-1.107,0.15-1.498,0.018c-0.668-0.224-1.271-1.435-1.848-1.869c-0.784-0.589-1.569-0.798-2.514-0.981
	c-0.81-0.157-1.582-0.443-2.389-0.137c-1.348,0.508-2.185,1.774-3.425,2.198c-1.616-0.016-3.501-0.648-3.777-2.422
	c6.752-2.773,14.004-3.689,21.293-2.572c-0.62,1.197-0.393,2.45,0.575,3.391c1.164,1.131,2.479,1.1,3.977,0.908
	c1.3-0.167,2.572-0.083,3.873-0.045c0.888,0.025,1.653-0.101,1.984-1.044c1.05,0.497,2.083,1.026,3.086,1.613
	c0.529,0.309,1.051,0.629,1.565,0.961c0.473,0.305,1.029,0.834,1.574,0.989c1.078,0.306,2.075-0.757,1.655-1.827
	c-0.39-0.991-2.062-1.686-2.925-2.206c-4.573-2.759-9.683-4.636-14.959-5.476C31.399-2.28,13.132,6.698,4.954,22.484
	c-1.989,3.839-3.473,8.053-4.303,12.305c-0.23,1.177-0.411,2.362-0.546,3.555c-0.095,0.847-0.34,1.908,0.536,2.443
	c2.274,1.392,2.238-2.961,2.411-4.045c1.332-8.354,5.298-16.25,11.191-22.301c-0.073,2.529-1.215,4.546-1.982,6.881
	c-0.959,2.922-1.613,6.684-0.677,9.692c0.368,1.184,1.629,1.636,2.229,2.657c0.475,0.808,0.197,1.746,0.17,2.634
	c-0.059,1.952-0.199,4.21,0.35,6.105c0.336,1.159,0.987,2.263,1.601,3.293c0.216,0.363,0.761,0.905,0.846,1.312
	c0.081,0.392-0.178,1.037-0.269,1.445c-0.73,3.305-1.767,6.545-3.108,9.656c-1.243,2.886-2.754,5.66-4.485,8.281
	c-0.61,0.922-1.986,2.705-0.226,3.365c1.483,0.555,2.409-1.711,3.015-2.667c1.721-2.712,3.221-5.569,4.453-8.534
	c0.678-1.633,1.277-3.297,1.798-4.986c0.468-1.519,0.703-3.173,1.257-4.655c1.819,1.32,4.115,0.854,6.11,1.681
	c-0.718,3.785-1.968,7.45-3.489,10.985c-1.522,3.54-3.383,6.945-5.532,10.145c-0.71,1.056-3.06,3.178-1.719,4.475
	c1.49,1.439,2.922-1.412,3.592-2.389c4.24-6.176,7.334-13.041,9.295-20.265c0.879,1.658,2.402,1.395,4.034,1.518
	c-0.001,1.368-1.372,2.061-1.805,3.275c-0.349,0.978-0.419,2.017-0.874,2.964c-0.352,0.735-0.877,1.396-1.072,2.201
	c-0.191,0.793,0.007,1.555,0.319,2.291c0.145,0.342,0.317,0.672,0.506,0.993c0.15,0.254,0.601,0.702,0.662,0.991
	c0.154,0.736-1.283,2.572-1.676,3.252c-1.602,2.775-3.237,5.512-5.117,8.109c-0.375,0.52-0.774,0.994-0.613,1.685
	c0.141,0.603,0.682,1.054,1.307,1.057c0.859,0.003,1.283-0.823,1.718-1.429c0.553-0.771,1.09-1.553,1.611-2.344
	c1.702-2.584,3.173-5.291,4.684-7.986c0.739,0.877,1.449,1.777,2.183,2.659c0.799,0.959,1.752,1.897,2.415,2.958
	c0.527,0.842-0.033,1.253-0.499,2.07c-0.59,1.039-1.21,2.06-1.847,3.069c-0.568,0.899-1.959,2.288-1.905,3.388
	c0.045,0.916,0.782,1.189,1.528,1.396c1.718,0.476,3.489,0.972,5.267,1.153c1.568-1.135,2.167-2.522,4.26-2.7
	c0.713-0.062,1.383-0.056,1.88-0.64c0.424-0.5,0.47-1.17,0.832-1.701c0.893-1.309,2.957-0.602,3.688-2.023
	c0.336-0.652,0.292-1.41,0.712-2.033c0.397-0.588,1.03-0.99,1.674-1.25c1.222-0.494,2.619-0.57,3.488-1.688
	c1.014-1.306,1.024-3.151,1.874-4.562c0.683-1.132,1.025-2.271,0.269-3.503c-0.703-1.147-1.938-1.586-3.214-1.6
	c1.154-3.761,2.116-7.573,2.816-11.445c1.128-6.242,2.409-12.932-1.059-18.682c-3.429-5.685-9.955-8.427-16.425-7.227
	c0.583-0.755,1.456-1.947,1.289-2.969c-0.087-0.533-0.472-0.398-0.65-0.678c-0.131-0.206-0.219-1.07-0.001-1.277
	c0.272-0.259,1.368-0.244,1.695-0.274c0.735-0.067,1.478-0.083,2.216-0.048c1.139,0.055,2.186,0.278,3.23,0.73
	c-0.556,0.129-0.934,0.369-1.433,0.646c0.502,1.267,3.115,2.361,4.318,1.498c0.899-0.645-0.222-1.424-0.641-1.98
	c-0.365-0.484-0.557-1.058-1.021-1.459l0.182-0.323c8.053,2.314,14.157,9.27,15.686,17.469c0.709,3.801,0.244,7.624-0.28,11.418
	c-0.537,3.893-1.296,7.756-2.272,11.563c-0.951,3.702-2.106,7.354-3.466,10.927c-0.676,1.778-1.406,3.536-2.18,5.274
	c-0.391,0.878-0.794,1.75-1.21,2.615c-0.343,0.715-1.051,1.655-1.022,2.473c0.025,0.713,0.637,1.313,1.349,1.314
	c0.898,0.004,1.228-0.791,1.567-1.477c0.853-1.727,1.657-3.475,2.417-5.243c1.475-3.44,2.76-6.962,3.856-10.54
	c2.195-7.173,3.809-14.733,4.264-22.234l0.359-0.066c0.567,1.276,4.209,4.752,5.292,5.064c-0.769,6.171-2.021,12.272-3.794,18.233
	c-0.45,1.515-0.935,3.019-1.449,4.515c-0.26,0.756-0.528,1.51-0.805,2.26c-0.168,0.457-0.414,0.934-0.339,1.435
	c0.185,1.257,1.8,1.522,2.476,0.517c0.65-0.97,0.914-2.402,1.285-3.487c1.855-5.425,3.317-10.99,4.326-16.634
	c0.249-1.388,0.477-2.779,0.676-4.176c0.092-0.648,0.179-1.297,0.261-1.947c0.061-0.49-0.032-1.564,0.232-1.978
	c0.362-0.566,0.772-0.16,1.215,0.195c0.595,0.475,2.833,2.643,3.404,3.626c0.119,0.206,0.696,0.581,0.733,0.74
	c0.088,0.378-0.334,1.231-0.446,1.604c-0.767,2.556-1.789,5.036-3.039,7.394c-0.498,0.939-1.908,2.504-1.421,3.623
	c0.393,0.906,1.544,1.069,2.227,0.392c0.789-0.782,1.296-2.158,1.804-3.144c0.597-1.156,1.142-2.338,1.633-3.541
	c2.068-5.067,3.162-10.524,3.237-15.995C84.892,40.934,84.65,38.044,84.126,35.204 M27.236,39.245
	c-0.502,1.889-0.512,3.853-0.869,5.768c-1.025-0.075-2.412-0.423-3.126,0.491c-0.345,0.442-0.374,0.784-1,0.922
	c-0.708,0.156-4.656-3.929-3.727-5.741c1.156-2.254,3.514-2.89,5.627-3.922c0.946-0.463,1.944-0.805,2.882-0.1
	C28.056,37.439,27.508,38.223,27.236,39.245 M43.081,59.149c-1.091-0.789-1.926-1.874-3.033-2.639
	c-1.046-0.725-2.245-1.047-3.495-1.19c0.768-3.046,1.365-6.13,1.764-9.247c0.191-1.489,0.049-3.347,0.845-4.67
	c0.649-1.079,1.853-1.783,3.117-1.783c1.568,0,2.962,1.048,3.444,2.53c0.53,1.631-0.028,3.73-0.248,5.373
	C44.949,51.451,44.139,55.33,43.081,59.149 M49.246,32.299c2.469,1.627,4.326,4.108,5.239,6.916
	c0.812,2.499,0.658,4.963,0.375,7.522c-0.36,3.264-0.897,6.507-1.598,9.716c-0.362,1.655-0.768,3.299-1.219,4.931
	c-0.318,1.144-1.203,2.806-0.86,3.983c-0.694,0.103-1.88,0.175-2.413-0.411c-0.454-0.5-0.155-1.532-0.324-2.154
	c-0.439-1.616-1.287-2.217-2.829-2.668c1.362-4.832,2.316-9.771,2.838-14.763c0.234-2.237,0.187-4.358-1.299-6.187
	c-1.189-1.463-3.006-2.327-4.892-2.327c-1.648,0-3.254,0.67-4.421,1.832c-1.42,1.416-1.791,3.149-1.984,5.075
	c-0.39,3.893-1.126,7.724-2.089,11.513c-0.261-0.994-0.446-1.391-1.572-1.429c-1.329-0.045-2.431-0.28-3.126-1.528
	c-0.346-0.619-0.838-1.735-0.861-2.449c-0.021-0.683,0.278-1.492,0.404-2.169c0.367-1.977,0.648-3.885,0.885-5.875
	c0.326-2.75,1.472-5.363,3.341-7.416C37.018,29.825,44.046,28.874,49.246,32.299 M70.543,30.577
	c-0.029,0.134-0.456,0.527-0.52,0.612c-0.254,0.335-0.489,0.682-0.691,1.051c-0.301,0.552-1.384,2.969-1.565,3.737
	c-0.245,1.045-0.464,2.119-0.683,3.173l-0.371-0.009c-1.095-6.678-4.886-12.829-10.453-16.703c-2.781-1.935-5.941-3.295-9.267-3.949
	c-0.613-0.121-1.232-0.22-1.853-0.295c-0.32-0.039-0.852,0.016-1.107-0.172c-0.748-0.552-0.895-2.143-2.055-2.143
	c-0.786,0-1.464,0.092-2.226-0.181c-0.631-0.226-1.043-0.626-1.566-1.019c-1.04-0.783-2.473-0.783-3.719-0.592
	c-0.924,0.141-2.212,0.677-1.938,1.872c0.25,1.097,1.705,1.679,2.135,2.766c-0.67,0.285-1.787,0.053-2.304,0.566
	c-0.296,0.294-0.296,0.838-0.747,0.989c-0.51,0.17-0.843-0.265-1.188-0.549c-1.526-1.255-3.908-0.7-5.145-2.556
	c-1.389-2.084,0.077-3.675,1.856-4.922c0.705-0.494,1.489-0.769,2.321-0.962c0.95-0.221,2.16-0.67,3.081-0.166
	c0.489-0.507,1.018-1.74,1.684-2.001c0.425-0.167,1.713-0.522,2.125-0.227c0.375,0.269,0.275,1.269,0.014,1.637
	c-0.456,0.642-1.439,0.641-2.14,0.658c-0.127,1.004,1.122,1.008,1.901,1.14c0.858,0.145,1.655,0.302,2.451,0.665
	c0.795,0.364,1.577,0.847,2.479,0.85c0.23,0,0.924-0.007,1.048-0.188c0.1-0.147,1.822-1.717,2.768-1.786
	c0.962-0.069,2.099,0.239,3.041,0.416c1.015,0.191,2.02,0.434,3.01,0.728c7.134,2.115,13.289,6.869,17.283,13.131
	c0.715,1.12,1.478,2.279,2.037,3.472C70.43,30.026,70.621,30.223,70.543,30.577"/>
<path fill="#FFFFFF" d="M32.482,104.961c0.048-0.166,0.167-0.237,0.322-0.237h0.393c0.155,0,0.274,0.071,0.322,0.237l2.882,7.791
	c0.06,0.215-0.023,0.346-0.237,0.346h-0.263c-0.167,0-0.286-0.071-0.333-0.238l-0.894-2.43h-3.36l-0.881,2.43
	c-0.048,0.167-0.167,0.238-0.334,0.238h-0.25c-0.226,0-0.309-0.131-0.25-0.346L32.482,104.961z M34.437,109.715l-1.108-3.038
	c-0.131-0.394-0.31-1.097-0.31-1.097h-0.023c0,0-0.191,0.703-0.322,1.097l-1.12,3.038H34.437z"/>
<path fill="#FFFFFF" d="M51.659,105.236c0-0.429,0.226-0.655,0.655-0.655h2.883c1.656,0,2.776,1.215,2.776,2.93
	c0,1.717-1.12,2.955-2.776,2.955h-1.453v1.978c0,0.429-0.227,0.655-0.656,0.655h-0.774c-0.429,0-0.655-0.227-0.655-0.655V105.236z
	 M54.768,108.678c0.727,0,1.084-0.488,1.084-1.168c0-0.678-0.357-1.143-1.048-1.143h-1.06v2.311H54.768z"/>
<path fill="#FFFFFF" d="M68.372,104.438c2.645,0,4.456,1.905,4.456,4.348c0,2.502-1.811,4.455-4.456,4.455s-4.456-1.953-4.456-4.455
	C63.916,106.343,65.727,104.438,68.372,104.438 M68.372,111.334c1.346,0,2.299-1.096,2.299-2.549c0-1.394-0.953-2.442-2.299-2.442
	c-1.347,0-2.299,1.049-2.299,2.442C66.073,110.239,67.025,111.334,68.372,111.334"/>
<path fill="#FFFFFF" d="M79.391,105.235c0-0.428,0.226-0.654,0.655-0.654h0.774c0.429,0,0.655,0.227,0.655,0.654v7.207
	c0,0.431-0.226,0.656-0.655,0.656h-0.774c-0.429,0-0.655-0.226-0.655-0.656V105.235z"/>
<path fill="#FFFFFF" d="M88.479,105.235c0-0.428,0.227-0.654,0.656-0.654h0.929c0.369,0,0.607,0.131,0.786,0.439l2.097,3.539
	c0.333,0.561,0.714,1.453,0.714,1.453h0.025c0,0-0.096-0.916-0.096-1.453v-3.324c0-0.428,0.226-0.654,0.655-0.654h0.775
	c0.428,0,0.655,0.227,0.655,0.654v7.207c0,0.431-0.227,0.656-0.655,0.656h-0.93c-0.357,0-0.595-0.131-0.774-0.44l-2.109-3.526
	c-0.333-0.56-0.714-1.453-0.714-1.453h-0.025c0,0,0.096,0.916,0.096,1.453v3.311c0,0.431-0.227,0.656-0.655,0.656h-0.774
	c-0.429,0-0.656-0.226-0.656-0.656V105.235z"/>
<path fill="#FFFFFF" d="M104.513,106.368h-1.93c-0.429,0-0.655-0.227-0.655-0.655v-0.478c0-0.428,0.226-0.654,0.655-0.654h5.945
	c0.429,0,0.655,0.227,0.655,0.654v0.478c0,0.429-0.226,0.655-0.655,0.655h-1.93v6.074c0,0.431-0.227,0.656-0.655,0.656h-0.774
	c-0.429,0-0.656-0.226-0.656-0.656V106.368z"/>
<path fill="#FFFFFF" d="M115.103,111.491l0.369-0.536c0.238-0.347,0.512-0.37,0.905-0.155c0.274,0.143,0.81,0.523,1.549,0.523
	c0.62,0,0.906-0.262,0.906-0.596c0-1.203-3.765-1.012-3.765-3.681c0-1.573,1.31-2.608,3.037-2.608c0.989,0,1.895,0.345,2.3,0.631
	c0.345,0.25,0.381,0.548,0.203,0.894l-0.286,0.56c-0.239,0.465-0.56,0.394-0.894,0.227c-0.393-0.191-0.786-0.393-1.346-0.393
	c-0.655,0-0.929,0.262-0.929,0.596c0,1.238,3.764,0.939,3.764,3.633c0,1.43-1.072,2.657-2.99,2.657
	c-1.191,0-2.252-0.488-2.704-0.847C114.972,112.192,114.793,111.93,115.103,111.491"/>
<path fill="#FFFFFF" d="M140.354,104.438c2.645,0,4.455,1.905,4.455,4.348c0,2.502-1.81,4.455-4.455,4.455
	c-2.646,0-4.456-1.953-4.456-4.455C135.898,106.343,137.708,104.438,140.354,104.438 M140.354,111.334
	c1.346,0,2.299-1.096,2.299-2.549c0-1.394-0.953-2.442-2.299-2.442c-1.347,0-2.3,1.049-2.3,2.442
	C138.055,110.239,139.007,111.334,140.354,111.334"/>
<path fill="#FFFFFF" d="M151.373,105.235c0-0.428,0.227-0.654,0.655-0.654h3.907c0.43,0,0.656,0.227,0.656,0.654v0.478
	c0,0.429-0.226,0.655-0.656,0.655h-2.477v1.787h1.941c0.43,0,0.656,0.227,0.656,0.654v0.478c0,0.428-0.226,0.655-0.656,0.655h-1.941
	v2.5c0,0.431-0.227,0.656-0.655,0.656h-0.775c-0.428,0-0.655-0.226-0.655-0.656V105.235z"/>
<path fill="#FFFFFF" d="M171.824,105.235c0-0.428,0.226-0.654,0.655-0.654h0.774c0.429,0,0.655,0.227,0.655,0.654v6.076h2.824
	c0.429,0,0.655,0.227,0.655,0.654v0.477c0,0.431-0.226,0.656-0.655,0.656h-4.253c-0.429,0-0.655-0.226-0.655-0.656V105.235z"/>
<path fill="#FFFFFF" d="M183.605,105.235c0-0.428,0.226-0.654,0.654-0.654h0.774c0.429,0,0.655,0.227,0.655,0.654v7.207
	c0,0.431-0.227,0.656-0.655,0.656h-0.774c-0.429,0-0.654-0.226-0.654-0.656V105.235z"/>
<path fill="#FFFFFF" d="M196.732,104.438c1.357,0,2.418,0.5,2.764,0.75c0.357,0.263,0.394,0.535,0.166,0.904l-0.309,0.49
	c-0.227,0.356-0.514,0.381-0.906,0.178s-0.845-0.418-1.584-0.418c-1.704,0-2.454,1.146-2.454,2.432c0,1.572,1.119,2.561,2.419,2.561
	c1.215,0,1.75-0.691,1.75-0.691v-0.582h-0.548c-0.428,0-0.655-0.227-0.655-0.655v-0.465c0-0.429,0.228-0.655,0.655-0.655h1.74
	c0.428,0,0.655,0.227,0.655,0.655v3.502c0,0.43-0.228,0.655-0.655,0.655h-0.394c-0.43,0-0.655-0.226-0.655-0.512v-0.025
	c0-0.069,0.012-0.118,0.012-0.118h-0.022c0,0-0.752,0.799-2.265,0.799c-2.192,0-4.192-1.668-4.192-4.349
	C192.254,106.295,194.123,104.438,196.732,104.438"/>
<path fill="#FFFFFF" d="M207.096,105.235c0-0.428,0.227-0.654,0.654-0.654h0.775c0.428,0,0.654,0.227,0.654,0.654v2.753h3.098
	v-2.753c0-0.428,0.227-0.654,0.654-0.654h0.775c0.43,0,0.656,0.227,0.656,0.654v7.207c0,0.431-0.227,0.656-0.656,0.656h-0.775
	c-0.428,0-0.654-0.226-0.654-0.656v-2.68h-3.098v2.68c0,0.431-0.227,0.656-0.654,0.656h-0.775c-0.428,0-0.654-0.226-0.654-0.656
	V105.235z"/>
<path fill="#FFFFFF" d="M223.201,106.368h-1.93c-0.43,0-0.655-0.227-0.655-0.655v-0.478c0-0.428,0.226-0.654,0.655-0.654h5.945
	c0.428,0,0.654,0.227,0.654,0.654v0.478c0,0.429-0.227,0.655-0.654,0.655h-1.931v6.074c0,0.431-0.228,0.656-0.655,0.656h-0.774
	c-0.429,0-0.655-0.226-0.655-0.656V106.368z"/>
<path fill="#FFFFFF" d="M243.318,105.02c0-0.189,0.095-0.297,0.286-0.297h4.133c0.19,0,0.298,0.107,0.298,0.297v0.145
	c0,0.19-0.107,0.297-0.298,0.297h-3.597v3.051h2.883c0.191,0,0.297,0.095,0.297,0.285v0.155c0,0.19-0.105,0.297-0.297,0.297h-2.883
	v3.11h3.812c0.191,0,0.298,0.107,0.298,0.298v0.144c0,0.19-0.106,0.297-0.298,0.297h-4.348c-0.191,0-0.286-0.106-0.286-0.297V105.02
	z"/>
<path fill="#FFFFFF" d="M255.266,105.02c0-0.189,0.096-0.297,0.286-0.297h0.286c0.154,0,0.262,0.06,0.357,0.191l4.146,5.836
	c0.286,0.418,0.69,1.133,0.69,1.133h0.024c0,0-0.072-0.69-0.072-1.133v-5.73c0-0.189,0.107-0.297,0.3-0.297h0.236
	c0.191,0,0.287,0.107,0.287,0.297v7.781c0,0.19-0.096,0.297-0.287,0.297h-0.286c-0.153,0-0.261-0.06-0.345-0.19l-4.158-5.838
	c-0.285-0.416-0.691-1.131-0.691-1.131h-0.023c0,0,0.072,0.69,0.072,1.131v5.731c0,0.19-0.107,0.297-0.286,0.297h-0.25
	c-0.19,0-0.286-0.106-0.286-0.297V105.02z"/>
<path fill="#FFFFFF" d="M271.406,105.461h-2.703c-0.191,0-0.299-0.106-0.299-0.297v-0.144c0-0.19,0.107-0.297,0.299-0.297h6.242
	c0.19,0,0.297,0.106,0.297,0.297v0.144c0,0.19-0.106,0.297-0.297,0.297h-2.717v7.34c0,0.189-0.095,0.297-0.285,0.297h-0.238
	c-0.191,0-0.299-0.107-0.299-0.297V105.461z"/>
<path fill="#FFFFFF" d="M281.842,105.02c0-0.189,0.096-0.297,0.286-0.297h4.134c0.189,0,0.299,0.107,0.299,0.297v0.145
	c0,0.19-0.109,0.297-0.299,0.297h-3.598v3.051h2.883c0.191,0,0.298,0.095,0.298,0.285v0.155c0,0.19-0.106,0.297-0.298,0.297h-2.883
	v3.11h3.812c0.191,0,0.298,0.107,0.298,0.298v0.144c0,0.19-0.106,0.297-0.298,0.297h-4.348c-0.19,0-0.286-0.106-0.286-0.297V105.02z
	"/>
<path fill="#FFFFFF" d="M293.789,105.02c0-0.189,0.096-0.296,0.287-0.296h2.263c0.786,0,1.19,0.083,1.524,0.237
	c0.752,0.357,1.239,1.085,1.239,2.098c0,1.131-0.644,2.049-1.584,2.311v0.023c0,0,0.083,0.107,0.214,0.334l1.633,3.026
	c0.106,0.202,0.023,0.345-0.203,0.345h-0.31c-0.167,0-0.274-0.072-0.345-0.203l-1.787-3.322h-2.109v3.229
	c0,0.189-0.107,0.297-0.285,0.297h-0.25c-0.191,0-0.287-0.107-0.287-0.297V105.02z M296.601,108.833c1.013,0,1.656-0.702,1.656-1.75
	c0-0.668-0.322-1.215-0.882-1.467c-0.238-0.105-0.488-0.153-1.096-0.153h-1.668v3.37H296.601z"/>
<path fill="#FFFFFF" d="M306.404,105.02c0-0.189,0.096-0.297,0.287-0.297h2.607c1.501,0,2.586,0.978,2.586,2.526
	c0,1.56-1.085,2.56-2.586,2.56h-2.072v2.991c0,0.191-0.107,0.298-0.285,0.298h-0.25c-0.191,0-0.287-0.106-0.287-0.298V105.02z
	 M309.191,109.071c1.121,0,1.848-0.678,1.848-1.821c0-1.132-0.727-1.787-1.835-1.787h-1.978v3.608H309.191z"/>
<path fill="#FFFFFF" d="M318.781,105.02c0-0.189,0.096-0.296,0.286-0.296h2.263c0.786,0,1.191,0.083,1.525,0.237
	c0.751,0.357,1.238,1.085,1.238,2.098c0,1.131-0.644,2.049-1.584,2.311v0.023c0,0,0.084,0.107,0.215,0.334l1.632,3.026
	c0.106,0.202,0.024,0.345-0.202,0.345h-0.311c-0.166,0-0.273-0.072-0.344-0.203l-1.787-3.322h-2.109v3.229
	c0,0.189-0.108,0.297-0.286,0.297h-0.25c-0.19,0-0.286-0.107-0.286-0.297V105.02z M321.592,108.833c1.014,0,1.656-0.702,1.656-1.75
	c0-0.668-0.322-1.215-0.881-1.467c-0.238-0.105-0.488-0.153-1.097-0.153h-1.667v3.37H321.592z"/>
<path fill="#FFFFFF" d="M331.396,105.02c0-0.189,0.095-0.297,0.285-0.297h0.25c0.18,0,0.287,0.107,0.287,0.297v7.781
	c0,0.19-0.107,0.297-0.287,0.297h-0.25c-0.19,0-0.285-0.106-0.285-0.297V105.02z"/>
<path fill="#FFFFFF" d="M339.413,111.942l0.144-0.178c0.119-0.143,0.25-0.154,0.418-0.035c0.285,0.236,0.987,0.727,1.929,0.727
	c1.001,0,1.704-0.561,1.704-1.43c0-2.109-4.17-1.608-4.17-4.206c0-1.369,1.156-2.239,2.621-2.239c1,0,1.728,0.417,2.037,0.655
	c0.144,0.106,0.166,0.237,0.071,0.394l-0.108,0.19c-0.105,0.179-0.262,0.179-0.416,0.083c-0.297-0.202-0.846-0.536-1.607-0.536
	c-0.954,0-1.752,0.524-1.752,1.405c0,2.014,4.17,1.479,4.17,4.17c0,1.287-0.953,2.3-2.55,2.3c-1.228,0-2.108-0.597-2.454-0.882
	C339.33,112.241,339.294,112.11,339.413,111.942"/>
<path fill="#FFFFFF" d="M351.54,105.02c0-0.189,0.095-0.297,0.286-0.297h4.134c0.19,0,0.298,0.107,0.298,0.297v0.145
	c0,0.19-0.107,0.297-0.298,0.297h-3.599v3.051h2.884c0.19,0,0.298,0.095,0.298,0.285v0.155c0,0.19-0.107,0.297-0.298,0.297h-2.884
	v3.11h3.813c0.191,0,0.299,0.107,0.299,0.298v0.144c0,0.19-0.107,0.297-0.299,0.297h-4.348c-0.191,0-0.286-0.106-0.286-0.297V105.02
	z"/>
</svg>
