<?xml version="1.0" encoding="utf-8"?>
<!-- Generator: Adobe Illustrator 15.1.0, SVG Export Plug-In . SVG Version: 6.00 Build 0)  -->
<!DOCTYPE svg PUBLIC "-//W3C//DTD SVG 1.1//EN" "http://www.w3.org/Graphics/SVG/1.1/DTD/svg11.dtd">
<svg version="1.1" id="Layer_1" xmlns="http://www.w3.org/2000/svg" xmlns:xlink="http://www.w3.org/1999/xlink" x="0px" y="0px"
	 width="233px" height="65px" viewBox="0 0 233 65" enable-background="new 0 0 233 65" xml:space="preserve">
<path fill="#FFFFFF" d="M45.019,59.97c0.03-0.106,0.108-0.153,0.206-0.153h0.253c0.099,0,0.176,0.047,0.206,0.153l1.85,4.998
	c0.038,0.138-0.016,0.222-0.153,0.222h-0.169c-0.106,0-0.182-0.045-0.213-0.152l-0.574-1.56H44.27l-0.565,1.56
	c-0.031,0.107-0.108,0.152-0.214,0.152H43.33c-0.145,0-0.199-0.084-0.161-0.222L45.019,59.97z M46.273,63.02l-0.711-1.949
	c-0.084-0.252-0.199-0.703-0.199-0.703h-0.015c0,0-0.123,0.451-0.207,0.703l-0.718,1.949H46.273z"/>
<path fill="#FFFFFF" d="M57.322,60.146c0-0.274,0.145-0.421,0.421-0.421h1.849c1.062,0,1.781,0.78,1.781,1.881
	c0,1.102-0.719,1.896-1.781,1.896H58.66v1.269c0,0.275-0.146,0.42-0.421,0.42h-0.496c-0.276,0-0.421-0.145-0.421-0.42V60.146z
	 M59.317,62.354c0.466,0,0.695-0.313,0.695-0.749s-0.229-0.734-0.673-0.734H58.66v1.483H59.317z"/>
<path fill="#FFFFFF" d="M68.044,59.634c1.696,0,2.858,1.224,2.858,2.789c0,1.606-1.162,2.858-2.858,2.858
	c-1.697,0-2.858-1.252-2.858-2.858C65.187,60.857,66.347,59.634,68.044,59.634 M68.044,64.059c0.863,0,1.475-0.703,1.475-1.636
	c0-0.894-0.612-1.565-1.475-1.565c-0.864,0-1.476,0.672-1.476,1.565C66.568,63.355,67.18,64.059,68.044,64.059"/>
<path fill="#FFFFFF" d="M75.114,60.146c0-0.274,0.145-0.421,0.42-0.421h0.497c0.275,0,0.42,0.146,0.42,0.421v4.624
	c0,0.275-0.145,0.42-0.42,0.42h-0.497c-0.275,0-0.42-0.145-0.42-0.42V60.146z"/>
<path fill="#FFFFFF" d="M80.945,60.146c0-0.274,0.146-0.421,0.421-0.421h0.596c0.237,0,0.389,0.084,0.504,0.283l1.345,2.271
	c0.214,0.357,0.458,0.931,0.458,0.931h0.016c0,0-0.061-0.587-0.061-0.931v-2.134c0-0.274,0.145-0.421,0.42-0.421h0.497
	c0.276,0,0.42,0.146,0.42,0.421v4.624c0,0.275-0.144,0.42-0.42,0.42h-0.596c-0.229,0-0.382-0.084-0.496-0.281l-1.354-2.264
	c-0.214-0.359-0.458-0.933-0.458-0.933h-0.016c0,0,0.062,0.589,0.062,0.933v2.125c0,0.275-0.146,0.42-0.421,0.42h-0.496
	c-0.275,0-0.421-0.145-0.421-0.42V60.146z"/>
<path fill="#FFFFFF" d="M91.232,60.871h-1.238c-0.276,0-0.421-0.145-0.421-0.42v-0.306c0-0.275,0.145-0.421,0.421-0.421h3.813
	c0.276,0,0.421,0.146,0.421,0.421v0.306c0,0.275-0.145,0.42-0.421,0.42h-1.238v3.898c0,0.275-0.146,0.42-0.42,0.42h-0.497
	c-0.275,0-0.42-0.145-0.42-0.42V60.871z"/>
<path fill="#FFFFFF" d="M98.025,64.158l0.237-0.344c0.153-0.221,0.328-0.236,0.581-0.1c0.176,0.092,0.52,0.336,0.994,0.336
	c0.397,0,0.581-0.168,0.581-0.381c0-0.772-2.415-0.65-2.415-2.363c0-1.008,0.84-1.672,1.949-1.672c0.634,0,1.215,0.22,1.474,0.404
	c0.222,0.159,0.245,0.351,0.13,0.572l-0.183,0.359c-0.153,0.298-0.359,0.252-0.574,0.146c-0.252-0.122-0.503-0.252-0.863-0.252
	c-0.421,0-0.597,0.168-0.597,0.382c0,0.795,2.416,0.604,2.416,2.332c0,0.916-0.688,1.703-1.918,1.703
	c-0.764,0-1.445-0.313-1.736-0.542C97.941,64.608,97.827,64.44,98.025,64.158"/>
<path fill="#FFFFFF" d="M114.226,59.634c1.696,0,2.858,1.224,2.858,2.789c0,1.606-1.162,2.858-2.858,2.858
	c-1.697,0-2.858-1.252-2.858-2.858C111.368,60.857,112.529,59.634,114.226,59.634 M114.226,64.059c0.863,0,1.475-0.703,1.475-1.636
	c0-0.894-0.612-1.565-1.475-1.565c-0.864,0-1.476,0.672-1.476,1.565C112.75,63.355,113.362,64.059,114.226,64.059"/>
<path fill="#FFFFFF" d="M121.295,60.146c0-0.274,0.146-0.421,0.42-0.421h2.508c0.275,0,0.42,0.146,0.42,0.421v0.306
	c0,0.275-0.145,0.42-0.42,0.42h-1.59v1.146h1.246c0.273,0,0.42,0.146,0.42,0.422v0.305c0,0.275-0.146,0.42-0.42,0.42h-1.246v1.605
	c0,0.275-0.146,0.42-0.422,0.42h-0.496c-0.274,0-0.42-0.145-0.42-0.42V60.146z"/>
<path fill="#FFFFFF" d="M134.416,60.146c0-0.274,0.146-0.421,0.42-0.421h0.496c0.275,0,0.422,0.146,0.422,0.421v3.897h1.811
	c0.275,0,0.42,0.146,0.42,0.421v0.306c0,0.275-0.145,0.42-0.42,0.42h-2.729c-0.274,0-0.42-0.145-0.42-0.42V60.146z"/>
<path fill="#FFFFFF" d="M141.975,60.146c0-0.274,0.145-0.421,0.42-0.421h0.496c0.275,0,0.42,0.146,0.42,0.421v4.624
	c0,0.275-0.145,0.42-0.42,0.42h-0.496c-0.275,0-0.42-0.145-0.42-0.42V60.146z"/>
<path fill="#FFFFFF" d="M150.396,59.634c0.87,0,1.552,0.32,1.772,0.48c0.229,0.169,0.252,0.345,0.107,0.581l-0.198,0.313
	c-0.146,0.229-0.329,0.245-0.581,0.114c-0.252-0.129-0.543-0.266-1.017-0.266c-1.094,0-1.574,0.732-1.574,1.558
	c0,1.009,0.718,1.644,1.552,1.644c0.779,0,1.123-0.443,1.123-0.443v-0.374h-0.353c-0.274,0-0.42-0.146-0.42-0.421v-0.297
	c0-0.276,0.146-0.422,0.42-0.422h1.115c0.276,0,0.421,0.146,0.421,0.422v2.246c0,0.275-0.145,0.42-0.421,0.42h-0.252
	c-0.275,0-0.42-0.145-0.42-0.328v-0.016c0-0.046,0.008-0.076,0.008-0.076h-0.015c0,0-0.482,0.512-1.453,0.512
	c-1.406,0-2.69-1.069-2.69-2.789C147.521,60.825,148.722,59.634,150.396,59.634"/>
<path fill="#FFFFFF" d="M157.044,60.146c0-0.274,0.146-0.421,0.422-0.421h0.495c0.275,0,0.422,0.146,0.422,0.421v1.767h1.985v-1.767
	c0-0.274,0.146-0.421,0.421-0.421h0.497c0.276,0,0.42,0.146,0.42,0.421v4.624c0,0.275-0.144,0.42-0.42,0.42h-0.497
	c-0.274,0-0.421-0.145-0.421-0.42v-1.72h-1.985v1.72c0,0.275-0.146,0.42-0.422,0.42h-0.495c-0.275,0-0.422-0.145-0.422-0.42V60.146z
	"/>
<path fill="#FFFFFF" d="M167.377,60.871h-1.237c-0.276,0-0.421-0.145-0.421-0.42v-0.306c0-0.275,0.145-0.421,0.421-0.421h3.813
	c0.275,0,0.42,0.146,0.42,0.421v0.306c0,0.275-0.145,0.42-0.42,0.42h-1.237v3.898c0,0.275-0.146,0.42-0.422,0.42h-0.495
	c-0.275,0-0.422-0.145-0.422-0.42V60.871z"/>
<path fill="#FFFFFF" d="M180.283,60.008c0-0.121,0.062-0.191,0.185-0.191h2.651c0.122,0,0.19,0.07,0.19,0.191V60.1
	c0,0.123-0.068,0.19-0.19,0.19h-2.309v1.957h1.85c0.122,0,0.191,0.062,0.191,0.185v0.099c0,0.122-0.069,0.19-0.191,0.19h-1.85v1.995
	h2.447c0.122,0,0.189,0.068,0.189,0.191v0.092c0,0.122-0.067,0.19-0.189,0.19h-2.79c-0.123,0-0.185-0.068-0.185-0.19V60.008z"/>
<path fill="#FFFFFF" d="M187.948,60.008c0-0.121,0.063-0.191,0.185-0.191h0.183c0.1,0,0.168,0.039,0.23,0.123l2.659,3.744
	c0.183,0.268,0.442,0.727,0.442,0.727h0.017c0,0-0.046-0.443-0.046-0.727v-3.676c0-0.121,0.067-0.191,0.19-0.191h0.153
	c0.122,0,0.183,0.07,0.183,0.191v4.991c0,0.122-0.061,0.19-0.183,0.19h-0.185c-0.1,0-0.168-0.037-0.222-0.121l-2.667-3.746
	c-0.183-0.268-0.443-0.725-0.443-0.725h-0.016c0,0,0.046,0.441,0.046,0.725v3.677c0,0.122-0.068,0.19-0.183,0.19h-0.16
	c-0.122,0-0.185-0.068-0.185-0.19V60.008z"/>
<path fill="#FFFFFF" d="M198.304,60.29h-1.734c-0.122,0-0.191-0.067-0.191-0.19v-0.092c0-0.121,0.069-0.191,0.191-0.191h4.006
	c0.122,0,0.189,0.07,0.189,0.191V60.1c0,0.123-0.067,0.19-0.189,0.19h-1.744V65c0,0.121-0.061,0.189-0.183,0.189h-0.153
	c-0.123,0-0.191-0.068-0.191-0.189V60.29z"/>
<path fill="#FFFFFF" d="M204.999,60.008c0-0.121,0.062-0.191,0.185-0.191h2.65c0.122,0,0.191,0.07,0.191,0.191V60.1
	c0,0.123-0.069,0.19-0.191,0.19h-2.308v1.957h1.849c0.123,0,0.191,0.062,0.191,0.185v0.099c0,0.122-0.068,0.19-0.191,0.19h-1.849
	v1.995h2.446c0.122,0,0.19,0.068,0.19,0.191v0.092c0,0.122-0.068,0.19-0.19,0.19h-2.789c-0.123,0-0.185-0.068-0.185-0.19V60.008z"/>
<path fill="#FFFFFF" d="M212.664,60.008c0-0.121,0.062-0.191,0.185-0.191h1.45c0.506,0,0.766,0.055,0.979,0.154
	c0.48,0.228,0.794,0.695,0.794,1.344c0,0.727-0.412,1.314-1.016,1.484v0.014c0,0,0.054,0.07,0.138,0.214l1.046,1.942
	c0.07,0.129,0.016,0.221-0.129,0.221h-0.199c-0.106,0-0.175-0.045-0.221-0.13l-1.147-2.132h-1.352V65
	c0,0.121-0.07,0.189-0.185,0.189h-0.159c-0.123,0-0.185-0.068-0.185-0.189V60.008z M214.468,62.453c0.649,0,1.063-0.449,1.063-1.123
	c0-0.428-0.207-0.779-0.565-0.939c-0.152-0.069-0.313-0.1-0.704-0.1h-1.068v2.162H214.468z"/>
<path fill="#FFFFFF" d="M220.757,60.008c0-0.122,0.062-0.191,0.185-0.191h1.673c0.963,0,1.66,0.627,1.66,1.62
	c0,1.002-0.697,1.644-1.66,1.644h-1.33V65c0,0.121-0.068,0.189-0.182,0.189h-0.161c-0.123,0-0.185-0.068-0.185-0.189V60.008z
	 M222.546,62.606c0.719,0,1.186-0.436,1.186-1.17c0-0.726-0.467-1.146-1.177-1.146h-1.271v2.315H222.546z"/>
<path fill="#FFFFFF" d="M228.697,60.008c0-0.121,0.063-0.191,0.185-0.191h1.451c0.506,0,0.766,0.055,0.979,0.154
	c0.48,0.228,0.794,0.695,0.794,1.344c0,0.727-0.413,1.314-1.016,1.484v0.014c0,0,0.054,0.07,0.138,0.214l1.046,1.942
	c0.069,0.129,0.016,0.221-0.129,0.221h-0.2c-0.105,0-0.175-0.045-0.22-0.13l-1.147-2.132h-1.353V65c0,0.121-0.069,0.189-0.185,0.189
	h-0.159c-0.122,0-0.185-0.068-0.185-0.189V60.008z M230.501,62.453c0.649,0,1.063-0.449,1.063-1.123
	c0-0.428-0.206-0.779-0.565-0.939c-0.152-0.069-0.313-0.1-0.703-0.1h-1.069v2.162H230.501z"/>
<path fill="#FFFFFF" d="M56.249,30.663c0.418,0.19,1.16,0.494,2.224,0.494c1.768,0,3.289-0.875,3.289-3.004v-0.988
	c0-0.361,0.057-0.684,0.057-0.684h-0.038c-0.57,1.083-1.54,1.787-3.042,1.787c-2.566,0-4.258-2.015-4.258-4.962
	c0-2.814,1.559-4.772,4.221-4.772c2.471,0,3.117,1.749,3.117,1.749h0.038c0,0-0.038-0.133-0.038-0.323v-0.779
	c0-0.248,0.152-0.419,0.456-0.419h0.305c0.304,0,0.475,0.171,0.475,0.476v8.859c0,3.041-2.262,4.22-4.544,4.22
	c-0.989,0-1.958-0.209-2.756-0.57c-0.286-0.134-0.361-0.324-0.228-0.609l0.113-0.266C55.774,30.625,55.945,30.548,56.249,30.663
	 M61.781,23.4c0-2.833-1.368-3.707-2.966-3.707c-1.938,0-3.004,1.369-3.004,3.574c0,2.395,1.237,3.84,3.118,3.84
	C60.451,27.107,61.781,26.176,61.781,23.4"/>
<path fill="#FFFFFF" d="M70.165,18.534c2.547,0,3.993,1.843,3.993,4.562c0,0.266-0.21,0.475-0.495,0.475h-6.881
	c0.056,2.434,1.729,3.822,3.706,3.822c1.198,0,2.072-0.533,2.509-0.875c0.267-0.171,0.476-0.133,0.628,0.114l0.152,0.228
	c0.133,0.228,0.095,0.456-0.133,0.628c-0.514,0.38-1.653,1.064-3.194,1.064c-2.851,0-5-2.053-5-5
	C65.45,20.416,67.579,18.534,70.165,18.534 M72.846,22.602c-0.076-2.015-1.293-3.004-2.719-3.004c-1.597,0-2.985,1.065-3.289,3.004
	H72.846z"/>
<path fill="#FFFFFF" d="M76.516,19.237c0-0.305,0.171-0.476,0.475-0.476h0.342c0.286,0,0.456,0.171,0.456,0.476v1.103
	c0,0.379-0.076,0.684-0.076,0.684h0.038c0.362-0.875,1.616-2.491,3.86-2.491c2.376,0,3.213,1.35,3.213,3.707v5.608
	c0,0.305-0.172,0.476-0.476,0.476h-0.361c-0.305,0-0.456-0.171-0.456-0.476v-5.265c0-1.502-0.247-2.833-2.092-2.833
	c-2.033,0-3.631,1.673-3.631,3.897v4.201c0,0.305-0.151,0.476-0.456,0.476h-0.361c-0.304,0-0.475-0.171-0.475-0.476V19.237z"/>
<path fill="#FFFFFF" d="M91.8,18.534c2.548,0,3.993,1.843,3.993,4.562c0,0.266-0.209,0.475-0.495,0.475h-6.88
	c0.056,2.434,1.729,3.822,3.706,3.822c1.198,0,2.072-0.533,2.509-0.875c0.266-0.171,0.476-0.133,0.627,0.114l0.153,0.228
	c0.133,0.228,0.095,0.456-0.133,0.628c-0.514,0.38-1.653,1.064-3.195,1.064c-2.85,0-4.999-2.053-4.999-5
	C87.086,20.416,89.215,18.534,91.8,18.534 M94.481,22.602c-0.076-2.015-1.292-3.004-2.719-3.004c-1.596,0-2.984,1.065-3.288,3.004
	H94.481z"/>
<path fill="#FFFFFF" d="M98.152,19.237c0-0.305,0.171-0.476,0.475-0.476h0.342c0.285,0,0.456,0.171,0.456,0.476v1.292
	c0,0.418-0.076,0.761-0.076,0.761h0.038c0.456-1.388,1.559-2.586,3.079-2.586c0.343,0,0.496,0.153,0.496,0.456v0.343
	c0,0.304-0.21,0.475-0.534,0.475c-2.014,0-2.984,2.301-2.984,4.297v3.573c0,0.305-0.152,0.476-0.456,0.476h-0.361
	c-0.304,0-0.475-0.171-0.475-0.476V19.237z"/>
<path fill="#FFFFFF" d="M109.596,22.469h0.552v-0.304c0-1.844-1.009-2.471-2.359-2.471c-1.064,0-1.882,0.399-2.319,0.665
	c-0.266,0.133-0.475,0.095-0.646-0.152l-0.114-0.19c-0.152-0.248-0.114-0.495,0.133-0.647c0.494-0.304,1.559-0.836,3.042-0.836
	c2.281,0,3.555,1.273,3.555,3.669v5.646c0,0.304-0.153,0.475-0.456,0.475h-0.305c-0.304,0-0.475-0.152-0.475-0.475v-0.76
	c0-0.438,0.057-0.723,0.057-0.723h-0.038c0.019,0-0.856,2.186-3.232,2.186c-1.616,0-3.232-0.95-3.232-2.794
	C103.759,22.64,107.751,22.469,109.596,22.469 M107.219,27.469c1.845,0,2.929-1.901,2.929-3.574v-0.456h-0.533
	c-1.502,0-4.525,0.057-4.525,2.205C105.09,26.537,105.794,27.469,107.219,27.469"/>
<path fill="#FFFFFF" d="M114.596,19.921h-0.798c-0.305,0-0.456-0.152-0.456-0.456v-0.152c0-0.305,0.151-0.475,0.456-0.475h0.818
	v-2.244c0-0.304,0.17-0.475,0.475-0.475h0.342c0.304,0,0.456,0.171,0.456,0.475v2.244h1.939c0.305,0,0.475,0.17,0.475,0.475v0.152
	c0,0.304-0.17,0.456-0.475,0.456h-1.939v4.791c0,2.205,1.35,2.471,2.091,2.509c0.381,0.038,0.513,0.152,0.513,0.475v0.247
	c0,0.305-0.151,0.457-0.532,0.457c-2.091,0-3.365-1.274-3.365-3.517V19.921z"/>
<path fill="#FFFFFF" d="M120.357,16.12v-0.684c0-0.304,0.151-0.475,0.455-0.475h0.477c0.304,0,0.456,0.171,0.456,0.475v0.684
	c0,0.304-0.152,0.456-0.456,0.456h-0.477C120.509,16.576,120.357,16.423,120.357,16.12 M120.395,19.237
	c0-0.305,0.172-0.476,0.477-0.476h0.361c0.304,0,0.455,0.171,0.455,0.476v8.611c0,0.305-0.151,0.476-0.455,0.476h-0.361
	c-0.305,0-0.477-0.171-0.477-0.476V19.237z"/>
<path fill="#FFFFFF" d="M129.102,18.534c2.795,0,5.057,2.129,5.057,4.962c0,2.889-2.262,5.057-5.037,5.057
	c-2.795,0-5.058-2.168-5.058-5.057C124.063,20.663,126.326,18.534,129.102,18.534 M129.121,27.393c2.034,0,3.707-1.673,3.707-3.897
	c0-2.167-1.673-3.802-3.707-3.802c-2.054,0-3.727,1.635-3.727,3.802C125.395,25.72,127.067,27.393,129.121,27.393"/>
<path fill="#FFFFFF" d="M136.518,19.237c0-0.305,0.172-0.476,0.476-0.476h0.341c0.286,0,0.456,0.171,0.456,0.476v1.103
	c0,0.379-0.075,0.684-0.075,0.684h0.037c0.361-0.875,1.617-2.491,3.859-2.491c2.377,0,3.214,1.35,3.214,3.707v5.608
	c0,0.305-0.171,0.476-0.476,0.476h-0.361c-0.305,0-0.456-0.171-0.456-0.476v-5.265c0-1.502-0.247-2.833-2.091-2.833
	c-2.034,0-3.631,1.673-3.631,3.897v4.201c0,0.305-0.152,0.476-0.457,0.476h-0.36c-0.304,0-0.476-0.171-0.476-0.476V19.237z"/>
<path fill="#95D600" d="M153.987,14.599c4.089,0,6.979,3.022,6.979,6.882c0,3.973-2.89,7.072-6.979,7.072
	c-4.087,0-6.976-3.099-6.976-7.072C147.012,17.621,149.9,14.599,153.987,14.599 M153.987,26.309c2.586,0,4.449-2.091,4.449-4.828
	c0-2.624-1.863-4.639-4.449-4.639c-2.585,0-4.448,2.015-4.448,4.639C149.539,24.218,151.402,26.309,153.987,26.309"/>
<path fill="#95D600" d="M162.848,19.427c0-0.514,0.268-0.798,0.78-0.798h0.741c0.513,0,0.78,0.284,0.78,0.798v0.589
	c0,0.209-0.038,0.437-0.038,0.437h0.038c0.418-0.817,1.481-2.053,3.439-2.053c2.149,0,3.385,1.122,3.385,3.689v5.436
	c0,0.532-0.267,0.799-0.799,0.799h-0.816c-0.515,0-0.799-0.267-0.799-0.799v-4.942c0-1.179-0.305-1.977-1.521-1.977
	c-1.711,0-2.794,1.425-2.794,3.174v3.745c0,0.532-0.266,0.799-0.78,0.799h-0.836c-0.513,0-0.78-0.267-0.78-0.799V19.427z"/>
<path fill="#95D600" d="M5.176,19.826c0.035-0.337,0.134-0.694-0.118-0.973c-0.204-0.226-0.532-0.281-0.797-0.128
	c-0.564,0.328-0.429,1.523-0.501,2.097c-0.221,1.743-0.652,3.459-1.288,5.098c-0.309,0.797-0.668,1.573-1.068,2.326
	c-0.17,0.319-0.463,0.671-0.369,1.053c0.072,0.282,0.338,0.495,0.63,0.495c0.476,0,0.657-0.49,0.846-0.842
	c0.216-0.402,0.421-0.809,0.613-1.223c0.407-0.881,0.758-1.788,1.05-2.713C4.709,23.319,4.989,21.591,5.176,19.826"/>
<path fill="#95D600" d="M40.175,17.513c-0.123-0.662-0.26-1.34-0.464-1.983c-0.116-0.366-0.294-0.717-0.423-1.089
	c-0.847-2.448-2.158-4.728-3.832-6.704c-0.319-0.377-0.793-1.162-1.392-0.915c-0.464,0.19-0.492,0.725-0.225,1.08
	c0.37,0.49,0.826,0.923,1.202,1.412c0.096,0.125,0.31,0.326,0.333,0.471c0.014,0.082-0.123,0.298-0.138,0.413
	c-0.306-0.021-0.783-0.034-0.931,0.304c-0.163,0.371,0.328,0.426,0.562,0.632c-0.742,0.346-0.631,1.195-0.076,1.659
	c0.462,0.387,1.523,0.381,1.91-0.114c0.364,0.331,0.345,0.752,0.45,1.193c-0.246,0.054-0.476,0.197-0.604,0.419
	c-0.057,0.097-0.064,0.29-0.159,0.353c-0.134,0.089-0.58-0.073-0.749-0.095c-0.269-0.035-0.504-0.019-0.763,0.071
	c-0.916-1.54-1.779-3.102-3.008-4.455c-2.8-3.083-6.755-5.014-10.919-5.258c-0.26-0.015-0.52-0.024-0.78-0.026
	c-0.206-0.002-0.534,0.072-0.723,0.008c-0.322-0.108-0.612-0.692-0.891-0.901c-0.377-0.284-0.756-0.385-1.212-0.473
	c-0.391-0.076-0.762-0.213-1.152-0.066c-0.65,0.245-1.053,0.855-1.651,1.06C13.761,4.5,12.853,4.195,12.719,3.34
	c3.256-1.337,6.752-1.779,10.266-1.24c-0.298,0.577-0.189,1.181,0.278,1.635c0.56,0.545,1.195,0.53,1.917,0.438
	c0.627-0.081,1.24-0.04,1.867-0.022c0.428,0.012,0.797-0.049,0.957-0.504c0.506,0.24,1.004,0.495,1.488,0.779
	c0.254,0.148,0.506,0.303,0.754,0.462c0.229,0.148,0.496,0.403,0.759,0.477c0.519,0.148,1.001-0.364,0.798-0.88
	c-0.188-0.478-0.994-0.813-1.41-1.064c-2.205-1.33-4.668-2.236-7.212-2.64C14.753-0.561,5.946,3.769,2.003,11.379
	c-0.959,1.851-1.675,3.883-2.074,5.933c-0.112,0.567-0.199,1.139-0.264,1.714c-0.046,0.408-0.164,0.92,0.258,1.178
	c1.097,0.671,1.079-1.428,1.163-1.95c0.642-4.029,2.554-7.835,5.395-10.753c-0.035,1.219-0.585,2.192-0.955,3.318
	c-0.463,1.409-0.778,3.222-0.327,4.673c0.178,0.571,0.786,0.789,1.075,1.281c0.229,0.39,0.095,0.841,0.082,1.269
	c-0.029,0.942-0.096,2.031,0.168,2.944c0.163,0.559,0.477,1.091,0.773,1.588c0.104,0.175,0.367,0.436,0.407,0.633
	c0.039,0.189-0.086,0.499-0.129,0.696c-0.352,1.594-0.852,3.156-1.498,4.655c-0.599,1.391-1.328,2.73-2.163,3.994
	c-0.294,0.444-0.958,1.303-0.108,1.621c0.714,0.268,1.161-0.825,1.453-1.286c0.829-1.307,1.553-2.684,2.146-4.114
	c0.327-0.787,0.616-1.59,0.867-2.404c0.226-0.732,0.339-1.529,0.607-2.244c0.877,0.636,1.983,0.412,2.945,0.811
	c-0.345,1.824-0.948,3.591-1.681,5.296c-0.735,1.707-1.632,3.348-2.668,4.891C7.133,35.633,6,36.655,6.646,37.28
	c0.718,0.694,1.41-0.681,1.732-1.151c2.044-2.979,3.536-6.288,4.481-9.771c0.424,0.799,1.159,0.673,1.946,0.732
	c0,0.659-0.661,0.994-0.87,1.579c-0.169,0.471-0.203,0.972-0.422,1.429c-0.17,0.354-0.423,0.673-0.517,1.061
	c-0.092,0.383,0.003,0.75,0.154,1.105c0.07,0.165,0.153,0.324,0.244,0.478c0.072,0.123,0.29,0.339,0.319,0.478
	c0.074,0.355-0.618,1.24-0.808,1.568c-0.772,1.338-1.56,2.657-2.467,3.91c-0.181,0.25-0.374,0.479-0.295,0.811
	c0.067,0.293,0.328,0.51,0.629,0.511c0.415,0.002,0.62-0.397,0.829-0.688c0.266-0.371,0.525-0.748,0.777-1.131
	c0.82-1.244,1.529-2.551,2.258-3.85c0.356,0.423,0.699,0.857,1.052,1.281c0.385,0.463,0.845,0.916,1.165,1.427
	c0.253,0.405-0.016,0.604-0.241,0.998c-0.285,0.501-0.583,0.993-0.89,1.479c-0.274,0.434-0.945,1.104-0.919,1.635
	c0.021,0.44,0.377,0.572,0.737,0.672c0.828,0.23,1.682,0.468,2.539,0.556c0.756-0.547,1.045-1.216,2.054-1.302
	c0.345-0.029,0.667-0.027,0.906-0.309c0.205-0.24,0.228-0.563,0.401-0.819c0.431-0.632,1.426-0.291,1.779-0.976
	c0.162-0.315,0.14-0.681,0.344-0.981c0.191-0.283,0.496-0.476,0.806-0.603c0.59-0.238,1.263-0.275,1.682-0.813
	c0.489-0.63,0.494-1.521,0.903-2.199c0.33-0.546,0.494-1.095,0.13-1.689c-0.339-0.553-0.935-0.765-1.55-0.771
	c0.557-1.814,1.021-3.651,1.359-5.518c0.544-3.01,1.161-6.235-0.511-9.008c-1.653-2.74-4.8-4.062-7.919-3.484
	c0.28-0.364,0.702-0.939,0.621-1.432c-0.042-0.256-0.228-0.192-0.313-0.326c-0.063-0.099-0.106-0.516-0.001-0.616
	c0.131-0.125,0.66-0.118,0.817-0.132c0.355-0.033,0.713-0.04,1.068-0.023c0.55,0.027,1.055,0.134,1.558,0.352
	c-0.268,0.062-0.45,0.178-0.691,0.311c0.243,0.612,1.501,1.139,2.083,0.722c0.433-0.311-0.108-0.686-0.31-0.954
	c-0.176-0.233-0.269-0.51-0.492-0.704l0.088-0.155c3.882,1.116,6.826,4.469,7.562,8.422c0.342,1.833,0.118,3.676-0.135,5.506
	c-0.258,1.876-0.625,3.738-1.095,5.573c-0.458,1.786-1.016,3.546-1.671,5.269c-0.326,0.857-0.678,1.705-1.051,2.543
	c-0.188,0.424-0.383,0.844-0.584,1.262c-0.165,0.344-0.507,0.799-0.492,1.191c0.012,0.344,0.307,0.633,0.65,0.635
	c0.433,0.002,0.592-0.382,0.756-0.713c0.411-0.832,0.799-1.675,1.165-2.527c0.711-1.659,1.331-3.356,1.859-5.082
	c1.058-3.458,1.836-7.104,2.056-10.72l0.173-0.031c0.273,0.615,2.029,2.291,2.552,2.442c-0.371,2.975-0.975,5.916-1.829,8.79
	c-0.218,0.73-0.452,1.456-0.7,2.176c-0.125,0.365-0.254,0.729-0.387,1.092c-0.081,0.219-0.199,0.449-0.164,0.69
	c0.09,0.604,0.868,0.734,1.194,0.249c0.314-0.467,0.44-1.158,0.619-1.682c0.895-2.615,1.6-5.298,2.086-8.019
	c0.12-0.67,0.231-1.34,0.326-2.013c0.045-0.313,0.086-0.626,0.126-0.939c0.03-0.237-0.015-0.755,0.112-0.954
	c0.174-0.273,0.372-0.077,0.586,0.094c0.287,0.229,1.366,1.274,1.641,1.748c0.058,0.099,0.335,0.28,0.354,0.357
	c0.042,0.182-0.162,0.593-0.216,0.773c-0.37,1.233-0.862,2.428-1.465,3.565c-0.24,0.453-0.92,1.207-0.686,1.747
	c0.191,0.436,0.746,0.515,1.075,0.188c0.38-0.377,0.625-1.04,0.87-1.515c0.287-0.557,0.55-1.127,0.787-1.708
	c0.996-2.442,1.524-5.074,1.56-7.711C40.544,20.275,40.428,18.881,40.175,17.513 M12.747,19.46
	c-0.242,0.911-0.247,1.858-0.419,2.781c-0.494-0.036-1.163-0.204-1.508,0.237c-0.166,0.213-0.179,0.378-0.481,0.445
	c-0.342,0.075-2.245-1.895-1.797-2.768c0.557-1.087,1.694-1.394,2.713-1.892c0.456-0.223,0.936-0.388,1.39-0.047
	C13.143,18.59,12.877,18.968,12.747,19.46 M20.385,29.057c-0.526-0.379-0.928-0.902-1.462-1.272
	c-0.504-0.349-1.082-0.504-1.685-0.573c0.37-1.469,0.658-2.956,0.851-4.458c0.092-0.719,0.023-1.614,0.407-2.252
	c0.313-0.52,0.894-0.86,1.503-0.86c0.756,0,1.428,0.505,1.66,1.22c0.256,0.786-0.013,1.798-0.12,2.59
	C21.287,25.346,20.896,27.216,20.385,29.057 M23.357,16.112c1.191,0.783,2.086,1.98,2.527,3.334c0.391,1.205,0.317,2.393,0.18,3.627
	c-0.173,1.573-0.432,3.137-0.77,4.684c-0.174,0.797-0.37,1.59-0.588,2.377c-0.153,0.552-0.58,1.353-0.414,1.92
	c-0.335,0.05-0.907,0.085-1.164-0.197c-0.219-0.242-0.074-0.739-0.156-1.039c-0.211-0.779-0.62-1.069-1.364-1.287
	c0.657-2.329,1.117-4.71,1.369-7.117c0.113-1.079,0.089-2.101-0.626-2.983c-0.575-0.706-1.45-1.122-2.36-1.122
	c-0.794,0-1.568,0.323-2.131,0.884c-0.685,0.682-0.864,1.518-0.957,2.446c-0.188,1.877-0.543,3.724-1.007,5.551
	c-0.125-0.479-0.214-0.671-0.757-0.689c-0.642-0.022-1.173-0.135-1.508-0.737c-0.166-0.298-0.403-0.837-0.415-1.181
	c-0.01-0.328,0.134-0.719,0.195-1.045c0.177-0.953,0.313-1.873,0.426-2.833c0.157-1.325,0.71-2.586,1.611-3.575
	C17.462,14.919,20.852,14.46,23.357,16.112 M33.626,15.281c-0.015,0.065-0.22,0.254-0.251,0.295
	c-0.122,0.162-0.235,0.329-0.333,0.507c-0.145,0.266-0.667,1.431-0.754,1.802c-0.118,0.503-0.224,1.021-0.33,1.529l-0.179-0.004
	c-0.527-3.22-2.355-6.185-5.04-8.053c-1.341-0.933-2.864-1.589-4.468-1.904c-0.295-0.058-0.593-0.106-0.893-0.142
	c-0.154-0.019-0.411,0.007-0.533-0.083c-0.362-0.266-0.432-1.033-0.991-1.033c-0.379,0-0.707,0.044-1.074-0.088
	c-0.303-0.109-0.503-0.302-0.755-0.491c-0.502-0.377-1.192-0.377-1.793-0.286c-0.446,0.069-1.066,0.327-0.934,0.903
	c0.12,0.529,0.822,0.81,1.029,1.334c-0.323,0.137-0.861,0.026-1.111,0.273c-0.143,0.141-0.142,0.404-0.36,0.477
	c-0.246,0.082-0.407-0.128-0.573-0.265c-0.735-0.605-1.884-0.338-2.48-1.233c-0.67-1.004,0.037-1.771,0.895-2.372
	c0.34-0.239,0.718-0.371,1.118-0.464c0.458-0.107,1.042-0.323,1.486-0.08c0.236-0.245,0.491-0.84,0.812-0.965
	c0.205-0.08,0.825-0.252,1.025-0.11c0.18,0.13,0.132,0.613,0.007,0.789c-0.22,0.31-0.694,0.31-1.033,0.318
	c-0.06,0.484,0.541,0.486,0.917,0.55c0.413,0.069,0.798,0.145,1.182,0.32c0.384,0.175,0.761,0.409,1.195,0.41
	c0.111,0,0.446-0.004,0.505-0.091c0.049-0.071,0.879-0.828,1.335-0.861c0.464-0.033,1.012,0.115,1.466,0.201
	c0.489,0.092,0.974,0.209,1.451,0.351c3.44,1.02,6.407,3.311,8.333,6.331c0.345,0.54,0.713,1.098,0.983,1.674
	C33.571,15.017,33.664,15.111,33.626,15.281"/>
</svg>
